<svg width="4263" height="2868" viewBox="0 0 4263 2868" fill="none" xmlns="http://www.w3.org/2000/svg">
<path d="M304.88 460.5C0.413544 1083.87 -171.62 2639.5 1615.38 2767C3187.94 2879.2 3963.39 2635.29 4119.38 1919.5C4172.88 1674 4304.38 909 3900.38 276C3762.91 60.6052 3435.73 194.214 3143.88 186C2873.3 178.385 2808.88 147 2451.38 216C2143.68 275.387 2221.38 16.5531 1556.38 147C865.545 282.515 451.38 -145 304.88 460.5Z" fill="#9FE4E9"/>
<path fill-rule="evenodd" clip-rule="evenodd" d="M420.382 5C-106.407 773.043 -563.62 2856.5 1915.38 2856.5C3860.88 2914.5 4257.88 2577.5 4257.88 1169.5C4216.32 745.375 4041.45 27.5 3927.88 27.5L420.382 5ZM1615.38 2767C-171.62 2639.5 0.413544 1083.87 304.88 460.5C451.38 -145 865.545 282.515 1556.38 147C2221.38 16.5531 2143.68 275.387 2451.38 216C2808.88 147 2873.3 178.385 3143.88 186C3435.73 194.214 3762.91 60.6052 3900.38 276C4304.38 909 4172.88 1674 4119.38 1919.5C3963.39 2635.29 3187.94 2879.2 1615.38 2767Z" fill="#E9FFFD"/>
<path d="M420.382 5C-106.407 773.043 -563.62 2856.5 1915.38 2856.5C3860.88 2914.5 4257.88 2577.5 4257.88 1169.5C4216.32 745.375 4041.45 27.5 3927.88 27.5M420.382 5C1223.07 5 3814.31 27.5 3927.88 27.5M420.382 5L3927.88 27.5M304.88 460.5C0.413544 1083.87 -171.62 2639.5 1615.38 2767C3187.94 2879.2 3963.39 2635.29 4119.38 1919.5C4172.88 1674 4304.38 909 3900.38 276C3762.91 60.6052 3435.73 194.214 3143.88 186C2873.3 178.385 2808.88 147 2451.38 216C2143.68 275.387 2221.38 16.5531 1556.38 147C865.545 282.515 451.38 -145 304.88 460.5Z" stroke="#DFF0FF" stroke-width="10"/>
</svg>
