<svg width="6844" height="3999" viewBox="0 0 6844 3999" fill="none" xmlns="http://www.w3.org/2000/svg">
<path d="M97.0117 898.234V621H6734.01V841.84C6303.9 975.777 6118.56 877.087 5958.29 841.84C5658.46 775.903 5316.66 807.678 5175.48 841.84C4790.39 918.189 4513.14 880.055 4403.57 851.058C4174.06 790.325 3909.68 816.354 3802.83 841.84C3492.65 968.728 3372.17 882.509 3060.9 800.629C2749.63 718.748 2273.73 779.481 2152.16 800.629C1900.97 872.206 1780.75 850.516 1712.24 841.84C1625.02 857.023 1132.58 778.939 899.448 734.474C612.054 719.291 257.281 834.61 97.0117 898.234Z" fill="#E9FFFD" stroke="#E9FFFD" stroke-width="10"/>
<path d="M6753.89 3724.3L109.072 3756.6C76.7724 3806.52 31.5537 3922.79 109.072 3988.57H6753.89C6795 3949.42 6852.55 3841.75 6753.89 3724.3Z" fill="#5D829C"/>
<path d="M82.6449 603.023H6753.89C6897.18 537.251 6813.6 417.058 6753.89 365.184H6254.72L6040.38 133.217C3371.88 -89.9409 1438.23 40.2346 804.972 133.217L608.24 365.184H82.6449C-48.9008 492.032 27.8342 576.597 82.6449 603.023Z" fill="#5D829C"/>
<path d="M82.6449 603.023H6753.89M82.6449 603.023L109.072 3756.6M82.6449 603.023C27.8342 576.597 -48.9008 492.032 82.6449 365.184H608.24L804.972 133.217C1438.23 40.2346 3371.88 -89.9409 6040.38 133.217L6254.72 365.184H6753.89C6813.6 417.058 6897.18 537.251 6753.89 603.023M6753.89 603.023V3724.3M6753.89 3724.3L109.072 3756.6M6753.89 3724.3C6852.55 3841.75 6795 3949.42 6753.89 3988.57H109.072C31.5537 3922.79 76.7724 3806.52 109.072 3756.6" stroke="black" stroke-width="20"/>
<path d="M106.012 872.423C261.906 811.631 676.958 682.912 1025.17 736.95C1460.42 804.497 1912.95 863.131 2079 795.584C2311.53 739.294 2560.32 745.304 2869.26 753.449C3207.81 762.375 3296.73 930.417 3730.91 851.781C4242.36 736.95 4279.79 863.05 4631.2 851.781C4995.08 840.111 5197.45 796.231 5561.48 790.988C6028.49 784.26 6289.75 994.242 6734.01 830.492V3707.99L131.616 3740L106.012 872.423Z" fill="#9FE4E9" stroke="#9FE4E9" stroke-width="15"/>
</svg>
