<svg width="900" height="1322" viewBox="0 0 900 1322" fill="none" xmlns="http://www.w3.org/2000/svg">
<path d="M708.005 524.057L658.505 600.557C620.338 574.89 540.505 524.857 526.505 530.057C549.338 557.057 590.105 626.457 570.505 688.057C590.505 701.557 640.105 727.557 678.505 723.557C707.672 717.057 772.505 673.357 798.505 550.557C789.838 553.057 767.005 555.257 745.005 544.057C723.005 532.857 711.172 526.057 708.005 524.057Z" fill="#0065D5" stroke="black" stroke-width="8"/>
<path d="M81.0049 644.057C71.8382 657.223 54.8049 685.457 60.0049 693.057L16.5049 685.057V631.057L81.0049 644.057Z" fill="#12447F" stroke="black" stroke-width="8"/>
<path d="M465.005 333.057C443.005 354.057 395 352 360 347.5C335.195 344.311 290.5 336 278 257.5C272.427 222.5 272 182.5 316.5 158C342.667 149 427.51 142.557 497.51 142.557C504.51 142.557 577.886 135.361 608.509 167.556C643.842 204.702 644.921 290.057 624.005 314.057C607.357 333.159 595.85 333.057 570.511 333.057C550.011 333.057 542.505 318.057 518.505 314.057C518.505 314.057 487.005 312.057 465.005 333.057Z" fill="#FBCFB0" stroke="black" stroke-width="8"/>
<path d="M389.005 4.05669C520.605 1.65669 584.172 76.0567 599.505 113.557C529.505 100.39 396.505 81.0566 297.005 126.557C243.785 150.893 236.834 185.057 253.844 270.057C241.501 271.787 221.622 274.711 203.005 277.739C188.484 280.101 174.732 282.526 165.923 284.496C163.135 282.029 161.505 282.078 161.505 285.557C158.171 268.89 153.504 233.857 161.505 227.057C151.505 164.557 224.505 7.05669 389.005 4.05669Z" fill="#0065D5"/>
<path d="M253.844 270.057C253.887 270.399 253.932 270.741 253.978 271.083L270.379 396.057C223.698 314.583 206.005 283.235 203.005 277.739C221.622 274.711 241.501 271.787 253.844 270.057Z" fill="#0065D5"/>
<path d="M753.005 548.557C735.171 541.784 698.605 521.115 695.005 492.618V456.998C695.005 456.998 674.742 439.364 676.505 425.057C677.829 414.307 676.505 402.057 692.005 402.057C707.505 402.057 713.705 405.357 720.505 416.557C727.305 427.757 730.005 441.89 730.505 447.557C737.838 406.856 742.505 334.057 778.505 346.755C809.367 357.642 805.705 357.757 778.505 430.557C798.005 390.723 821.144 339.057 845.505 356.557C875.996 378.46 863.705 376.281 814.505 447.557C831.171 424.723 869.005 383.657 887.005 402.057C899.171 407.223 907.905 430.657 845.505 483.057C844.654 499.512 834.24 532.074 801.068 548.557C795.267 551.439 788.769 553.83 781.505 555.557C776.171 555.112 763.005 553.088 753.005 548.557Z" fill="#0065D5"/>
<path d="M297.005 521.557C341.005 562.723 381.813 671.457 220.213 775.057L223.158 725.954C248.491 712.288 299.805 663.257 287.005 580.057C284.897 569.057 275.315 541.957 253.844 521.557H297.005Z" fill="#12447F"/>
<path d="M546.099 760.557C546.099 668.557 513.369 572.953 497.005 536.652C506.391 534.24 515.185 531.441 523.005 528.569C546.908 552.803 580.701 610.989 570.817 685.057C567.65 708.791 559.998 734.156 546.099 760.557Z" fill="#12447F"/>
<path d="M287.005 885.557C295.35 859.131 293.997 840.605 287.005 825.593C401.005 857.786 503.172 834.316 540.005 818.557C538.172 833.723 532.205 866.357 523.005 875.557C491.838 886.557 401.005 902.757 287.005 885.557Z" fill="#124480"/>
<path fill-rule="evenodd" clip-rule="evenodd" d="M523.005 875.557C491.838 886.557 401.005 902.757 287.005 885.557C281.203 891.557 267.839 901.757 260.802 894.557C256.214 901.574 248.937 908.546 238.086 915.057C235.593 925.828 230.044 935.307 219.596 940.184C214.066 981.475 203.005 1080.06 203.005 1144.06C213.405 1165.66 270.005 1161.72 297.005 1157.06L358.005 968.057C366.759 968.417 382.932 967.994 400.505 965.284C406.171 1014.87 417.505 1118.36 417.505 1135.56C452.705 1144.36 485.172 1131.89 497.005 1124.56C523.004 1067.76 525.171 934.89 523.005 875.557Z" fill="#0065D5"/>
<path d="M190.005 409.057C200.338 425.037 211.105 456.998 171.505 456.998C158.671 459.036 131.605 457.706 126.005 436.084C126.238 427.075 131.764 409.057 152.005 409.057H190.005Z" fill="#124480"/>
<path d="M190.005 409.057H152.005C143.404 386.557 119.064 345.457 90.5046 361.057C75.0046 366.385 52.2046 390.192 85.0046 442.799C74.6284 446.052 64.1559 450.663 54.806 456.998C11.447 365.751 56.8722 331.351 85.0046 325.557C123.805 308.598 171.171 374.157 190.005 409.057Z" fill="#124480"/>
<path d="M287.005 425.057C291.171 433.057 319.705 458.457 400.505 496.057C402.838 504.057 400.705 520.357 373.505 521.557C355.58 515.969 328.861 503.967 302.899 485.3C300.928 483.883 298.962 482.428 297.005 480.935C273.17 462.748 250.601 438.854 236.834 409.057C232.693 400.093 229.348 390.594 227.005 380.557C213.614 356.535 192.011 319.475 177.306 298.557C172.667 291.958 168.715 286.966 165.923 284.496C174.732 282.526 188.484 280.101 203.005 277.739C206.005 283.235 223.698 314.583 270.379 396.057C275.557 405.095 281.093 414.751 287.005 425.057Z" fill="#124480"/>
<path fill-rule="evenodd" clip-rule="evenodd" d="M302.899 485.3C300.928 483.883 298.962 482.428 297.005 480.935V521.557C341.005 562.723 381.813 671.457 220.213 775.057L219.596 785.352C213.709 784.681 208.083 784.448 203.005 784.557C195.464 760.365 187.369 741.859 179.772 728.021C176.839 722.277 174.01 717.479 171.505 714.39C192.048 701.017 214.291 679.645 226.719 666.557L223.158 725.954C248.491 712.288 299.805 663.257 287.005 580.057C284.897 569.057 275.315 541.957 253.844 521.557C220.963 523.711 144.683 551.381 85.0046 642.503C80.0452 650.075 75.2004 658.086 70.5046 666.557C66.9264 670.224 62.5799 679.116 61.7947 693.557C61.1171 706.02 63.0925 722.617 70.5046 743.557C76.1895 757.12 88.5348 780.735 105.333 802.142C116.607 816.509 129.887 829.882 144.505 838.557C142.773 848.674 144.161 865.25 154.672 880.224C158.037 885.018 162.338 889.648 167.77 893.849C168.96 894.769 170.204 895.668 171.505 896.544C170.26 905.34 170.431 912.608 171.505 918.566C174.434 934.819 184.077 941.331 190.005 942.557C202.661 944.745 212.317 943.582 219.596 940.184C230.044 935.307 235.593 925.828 238.086 915.057C248.937 908.546 256.214 901.574 260.802 894.557C267.839 901.757 281.203 891.557 287.005 885.557C295.35 859.131 293.997 840.605 287.005 825.593C401.005 857.786 503.172 834.316 540.005 818.557L546.099 760.557C546.099 668.557 513.369 572.953 497.005 536.652C456.731 546.999 405.542 550.221 373.505 521.557C355.58 515.969 328.861 503.967 302.899 485.3Z" fill="#0065D5"/>
<path d="M223.158 725.954L220.213 775.057L219.596 785.352C213.709 784.681 208.083 784.448 203.005 784.557C195.464 760.365 187.369 741.859 179.772 728.021C176.839 722.277 174.01 717.479 171.505 714.39C192.048 701.017 214.291 679.645 226.719 666.557L223.158 725.954Z" fill="#FEC50E"/>
<path fill-rule="evenodd" clip-rule="evenodd" d="M297.005 356.557C311.005 366.89 354.705 386.157 417.505 380.557C422.672 381.057 439.305 376.957 464.505 356.557C473.172 345.39 489.005 328.557 521.505 328.557C534.329 331.617 558.505 346.755 549.005 367.057C569.505 362.557 601.438 360.705 621.005 346.755C627.672 386.022 603.805 482.969 523.005 528.569C515.185 531.441 506.391 534.24 497.005 536.652C456.731 546.999 405.542 550.221 373.505 521.557C400.705 520.357 402.838 504.057 400.505 496.057C319.705 458.457 291.171 433.057 287.005 425.057C281.093 414.751 275.557 405.095 270.379 396.057L253.978 271.083C257.884 300.064 270.557 329.582 297.005 356.557ZM511.505 436.084C480.374 442.87 430.452 443.056 389.005 409.057C387.074 418.568 388.39 436.87 400.505 456.998C408.257 469.878 418.239 490.811 439.005 496.057C452.509 499.468 461.989 496.535 474.505 492.618C495.388 486.083 514.256 470.112 511.505 436.084Z" fill="#FBCFB0"/>
<path d="M177.306 298.557C192.011 319.475 213.614 356.535 227.005 380.557C229.348 390.594 232.693 400.093 236.834 409.057C215.097 417.057 196.558 399.39 190.005 389.557C160.405 351.157 169.205 312.89 177.306 298.557Z" fill="#FCCEB0"/>
<path d="M198.773 442.799C231.973 456.399 250.731 502.557 253.844 521.557C220.963 523.711 144.683 551.381 85.0046 642.503L15.9569 631.371L22.5046 508.557C25.3436 484.676 38.3326 468.16 54.806 456.998C64.1559 450.663 74.6284 446.052 85.0046 442.799C100.136 438.054 115.062 436.196 126.005 436.084C131.605 457.706 158.671 459.036 171.505 456.998C188.732 456.998 196.428 450.949 198.773 442.799Z" fill="#FEC50E"/>
<path d="M474.505 492.618C461.989 496.535 452.509 499.468 439.005 496.057C418.239 490.811 408.257 469.878 400.505 456.998C452.905 441.751 471.672 474.392 474.505 492.618Z" fill="#E53F28"/>
<path d="M389.005 409.057C430.452 443.056 480.374 442.87 511.505 436.084C514.256 470.112 495.388 486.083 474.505 492.618C471.672 474.392 452.905 441.751 400.505 456.998C388.39 436.87 387.074 418.568 389.005 409.057Z" fill="black"/>
<path d="M22.5046 1249.56L203.005 1144.06C213.405 1165.66 270.005 1161.72 297.005 1157.06C321.505 1170.06 278.505 1261.06 236.834 1300.56C203.497 1332.16 172.058 1313.72 160.505 1300.56C147.064 1292.56 96.5046 1300.56 96.5046 1300.56C96.5046 1300.56 63.5388 1278.39 54.806 1276.56C-2.15297 1268.56 9.53886 1255.22 22.5046 1249.56Z" fill="#E53F28"/>
<path d="M429.005 1202.56C383.405 1192.16 402.338 1153.56 417.505 1135.56C452.705 1144.36 485.172 1131.89 497.005 1124.56C705.141 1170.16 748.728 1195.56 744.505 1202.56C699.254 1222.96 727.594 1237.64 707.505 1249.56C691.254 1259.2 660.505 1261.06 660.505 1261.06C660.505 1261.06 626.005 1270.56 621.005 1276.56C616.005 1282.56 429.005 1202.56 429.005 1202.56Z" fill="#E53F28"/>
<path d="M105.333 802.142C116.607 816.509 129.887 829.882 144.505 838.557C140.999 855.15 146.881 869.591 154.672 880.224C158.037 885.018 162.338 889.648 167.77 893.849C169.091 894.889 170.348 895.791 171.505 896.544C170.26 905.34 170.431 912.608 171.505 918.566L96.5046 924.057C69.2901 922.019 49.59 915.11 35.5547 906.157C14.6606 890.832 5.83667 869.149 4.00464 855.557L14.0046 685.057L61.7947 693.557C61.1171 706.02 63.0925 722.617 70.5046 743.557C78.3903 766.06 91.6786 786.074 105.333 802.142Z" fill="#FEC50E"/>
<path d="M406.505 189.057C394.172 178.723 358.105 169.557 336.505 203.557C362.905 184.757 394.172 186.057 406.505 189.057Z" fill="#0B0B0B"/>
<path d="M505.505 178.057C518.005 166.723 551.005 155.057 584.005 185.057C548.005 170.257 516.672 174.223 505.505 178.057Z" fill="black"/>
<path d="M599.505 113.557C584.172 76.0567 520.605 1.65669 389.005 4.05669C224.505 7.05669 151.505 164.557 161.505 227.057M599.505 113.557C529.505 100.39 396.505 81.0566 297.005 126.557C243.785 150.893 236.834 185.057 253.844 270.057M599.505 113.557C637.005 131.223 699.752 273.86 636.505 334.057C630.837 339.452 627.336 342.241 621.005 346.755M161.505 227.057C153.504 233.857 158.171 268.89 161.505 285.557M161.505 227.057C171.397 221.39 195.598 211.057 245.727 211.057M482.005 378.557C512.805 397.757 538.505 378.557 538.505 378.557C538.505 378.557 547.62 370.922 549.005 367.057M549.005 367.057C558.505 346.755 534.329 331.617 521.505 328.557C489.005 328.557 473.172 345.39 464.505 356.557C439.305 376.957 422.672 381.057 417.505 380.557C354.705 386.157 311.005 366.89 297.005 356.557C270.557 329.582 257.884 300.064 253.978 271.083M549.005 367.057C569.505 362.557 601.438 360.705 621.005 346.755M253.844 270.057C241.501 271.787 221.622 274.711 203.005 277.739M253.844 270.057C253.887 270.399 253.932 270.741 253.978 271.083M253.844 270.057L253.978 271.083M161.505 285.557C161.505 282.078 163.135 282.029 165.923 284.496M161.505 285.557C162.784 285.222 164.266 284.867 165.923 284.496M203.005 277.739C188.484 280.101 174.732 282.526 165.923 284.496M203.005 277.739C206.005 283.235 223.698 314.583 270.379 396.057M373.505 521.557C400.705 520.357 402.838 504.057 400.505 496.057C319.705 458.457 291.171 433.057 287.005 425.057C281.093 414.751 275.557 405.095 270.379 396.057M373.505 521.557C405.542 550.221 456.731 546.999 497.005 536.652M373.505 521.557C355.58 515.969 328.861 503.967 302.899 485.3M177.306 298.557C192.011 319.475 213.614 356.535 227.005 380.557C229.348 390.594 232.693 400.093 236.834 409.057M177.306 298.557C169.205 312.89 160.405 351.157 190.005 389.557C196.558 399.39 215.097 417.057 236.834 409.057M177.306 298.557C172.667 291.958 168.715 286.966 165.923 284.496M236.834 409.057C250.601 438.854 273.17 462.748 297.005 480.935M236.834 409.057C251.731 441.302 276.937 466.633 302.899 485.3M621.005 346.755C627.672 386.022 603.805 482.969 523.005 528.569M523.005 528.569C518.125 530.841 529.39 526.224 523.005 528.569ZM523.005 528.569C515.185 531.441 506.391 534.24 497.005 536.652M523.005 528.569C535.672 530.898 580.905 548.657 660.505 601.057L710.238 521.057M523.005 528.569C546.908 552.803 580.701 610.989 570.817 685.057M530.005 430.557C525.115 432.525 518.83 434.487 511.505 436.084M511.505 436.084C480.374 442.87 430.452 443.056 389.005 409.057C387.074 418.568 388.39 436.87 400.505 456.998M511.505 436.084C514.256 470.112 495.388 486.083 474.505 492.618M474.505 492.618C461.989 496.535 452.509 499.468 439.005 496.057C418.239 490.811 408.257 469.878 400.505 456.998M474.505 492.618C471.672 474.392 452.905 441.751 400.505 456.998M297.005 480.935V521.557M297.005 480.935C298.962 482.428 300.928 483.883 302.899 485.3M297.005 521.557C341.005 562.723 381.813 671.457 220.213 775.057M297.005 521.557H253.844M220.213 775.057L223.158 725.954M220.213 775.057L219.596 785.352M223.158 725.954C248.491 712.288 299.805 663.257 287.005 580.057C284.897 569.057 275.315 541.957 253.844 521.557M223.158 725.954L226.719 666.557M253.844 521.557C250.731 502.557 231.973 456.399 198.773 442.799C196.428 450.949 188.732 456.998 171.505 456.998M253.844 521.557C220.963 523.711 144.683 551.381 85.0046 642.503M70.5046 743.557C63.0925 722.617 61.1171 706.02 61.7947 693.557M70.5046 743.557L61.7947 693.557M70.5046 743.557C78.3903 766.06 91.6786 786.074 105.333 802.142M70.5046 743.557C76.1895 757.12 88.5348 780.735 105.333 802.142M144.505 838.557C129.887 829.882 116.607 816.509 105.333 802.142M144.505 838.557C140.999 855.15 146.881 869.591 154.672 880.224M144.505 838.557C142.773 848.674 144.161 865.25 154.672 880.224M144.505 838.557C135.246 832.24 120.076 819.491 105.333 802.142M203.005 909.557C189.965 906.584 179.634 902.021 171.505 896.544M253.844 631.057C250.052 638.288 241.056 651.458 226.719 666.557M171.505 714.39C192.048 701.017 214.291 679.645 226.719 666.557M171.505 714.39L226.719 666.557M171.505 714.39C174.01 717.479 176.839 722.277 179.772 728.021M152.005 693.557C157.47 696.391 168.025 706.625 179.772 728.021M203.005 784.557C208.083 784.448 213.709 784.681 219.596 785.352M203.005 784.557L219.596 785.352M203.005 784.557C195.464 760.365 187.369 741.859 179.772 728.021M203.005 784.557C198.258 770.877 188.549 745.211 179.772 728.021M287.005 885.557C295.35 859.131 293.997 840.605 287.005 825.593M287.005 885.557C401.005 902.757 491.838 886.557 523.005 875.557M287.005 885.557C281.203 891.557 267.839 901.757 260.802 894.557M262.005 853.057C268.133 864.404 270.589 879.584 260.802 894.557M236.834 875.557C241.831 895.498 242.912 929.301 219.596 940.184M171.505 896.544C170.26 905.34 170.431 912.608 171.505 918.566M171.505 896.544V918.566M171.505 896.544C170.348 895.791 169.091 894.889 167.77 893.849M171.505 896.544C170.204 895.668 168.96 894.769 167.77 893.849M190.005 409.057C200.338 425.037 211.105 456.998 171.505 456.998M190.005 409.057H152.005M190.005 409.057C171.171 374.157 123.805 308.598 85.0046 325.557C56.8722 331.351 11.447 365.751 54.806 456.998M171.505 456.998C158.671 459.036 131.605 457.706 126.005 436.084M126.005 436.084C126.238 427.075 131.764 409.057 152.005 409.057M126.005 436.084C115.062 436.196 100.136 438.054 85.0046 442.799M152.005 409.057C143.404 386.557 119.064 345.457 90.5046 361.057C75.0046 366.385 52.2046 390.192 85.0046 442.799M226.719 666.557L219.596 785.352M219.596 785.352C244.744 788.22 274.661 799.092 287.005 825.593M85.0046 642.503C80.0452 650.075 75.2004 658.086 70.5046 666.557C66.9264 670.224 62.5799 679.116 61.7947 693.557M85.0046 642.503L15.9569 631.371M14.0046 631.057L15.9569 631.371M61.7947 693.557L14.0046 685.057L4.00464 855.557M4.00464 855.557L15.9569 631.371M4.00464 855.557C5.83667 869.149 14.6606 890.832 35.5547 906.157M4.00464 855.557C3.79258 868.598 11.0137 890.503 35.5547 906.157M96.5046 924.057L171.505 918.566M96.5046 924.057C69.2901 922.019 49.59 915.11 35.5547 906.157M96.5046 924.057C69.5448 924.057 49.7602 916.577 35.5547 906.157M171.505 918.566C174.434 934.819 184.077 941.331 190.005 942.557C202.661 944.745 212.317 943.582 219.596 940.184M54.806 456.998C38.3326 468.16 25.3436 484.676 22.5046 508.557L15.9569 631.371M54.806 456.998C64.1559 450.663 74.6284 446.052 85.0046 442.799M497.005 536.652C513.369 572.953 546.099 668.557 546.099 760.557M546.099 760.557L540.005 818.557M546.099 760.557C559.998 734.156 567.65 708.791 570.817 685.057M540.005 818.557C503.172 834.316 401.005 857.786 287.005 825.593M540.005 818.557C538.172 833.723 532.205 866.357 523.005 875.557M523.005 875.557C525.171 934.89 523.004 1067.76 497.005 1124.56M730.505 447.557C730.005 441.89 727.305 427.757 720.505 416.557C713.705 405.357 707.505 402.057 692.005 402.057C676.505 402.057 677.829 414.307 676.505 425.057C674.742 439.364 695.005 456.998 695.005 456.998V492.618C698.605 521.115 735.171 541.784 753.005 548.557C763.005 553.088 776.171 555.112 781.505 555.557C788.769 553.83 795.267 551.439 801.068 548.557M730.505 447.557C739.171 446.223 758.705 454.057 767.505 496.057M730.505 447.557C737.838 406.856 742.505 334.057 778.505 346.755C809.367 357.642 805.705 357.757 778.505 430.557C798.005 390.723 821.144 339.057 845.505 356.557C875.996 378.46 863.705 376.281 814.505 447.557C831.171 424.723 869.005 383.657 887.005 402.057C899.171 407.223 907.905 430.657 845.505 483.057C844.654 499.512 834.24 532.074 801.068 548.557M830.005 464.557C822.747 453.223 800.085 430.557 767.505 430.557M801.068 548.557C790.88 599.223 753.405 704.857 685.005 722.057C671.547 727.723 629.868 728.257 570.817 685.057M497.005 1124.56C705.141 1170.16 748.728 1195.56 744.505 1202.56C699.254 1222.96 727.594 1237.64 707.505 1249.56C691.254 1259.2 660.505 1261.06 660.505 1261.06C660.505 1261.06 626.005 1270.56 621.005 1276.56C616.005 1282.56 429.005 1202.56 429.005 1202.56C383.405 1192.16 402.338 1153.56 417.505 1135.56M497.005 1124.56C485.172 1131.89 452.705 1144.36 417.505 1135.56M219.596 940.184C214.066 981.475 203.005 1080.06 203.005 1144.06M219.596 940.184C230.044 935.307 235.593 925.828 238.086 915.057C248.937 908.546 256.214 901.574 260.802 894.557M203.005 1144.06L22.5046 1249.56C9.53886 1255.22 -2.15297 1268.56 54.806 1276.56C63.5388 1278.39 96.5046 1300.56 96.5046 1300.56C96.5046 1300.56 147.064 1292.56 160.505 1300.56C172.058 1313.72 203.497 1332.16 236.834 1300.56C278.505 1261.06 321.505 1170.06 297.005 1157.06M203.005 1144.06C213.405 1165.66 270.005 1161.72 297.005 1157.06M297.005 1157.06L358.005 968.057C366.759 968.417 382.932 967.994 400.505 965.284M439.005 955.057C426.997 960.087 413.376 963.299 400.505 965.284M400.505 965.284C406.171 1014.87 417.505 1118.36 417.505 1135.56M270.379 396.057L253.978 271.083M154.672 880.224C158.037 885.018 162.338 889.648 167.77 893.849M154.672 880.224C158.874 885.96 163.632 890.588 167.77 893.849M406.505 189.057C394.172 178.723 358.105 169.557 336.505 203.557C362.905 184.757 394.172 186.057 406.505 189.057ZM505.505 178.057C518.005 166.723 551.005 155.057 584.005 185.057C548.005 170.257 516.672 174.223 505.505 178.057Z" stroke="black" stroke-width="8"/>
<path d="M161 230C170 222.833 199 209.1 243 211.5L253 267.5L161 285C157.833 272.833 153.4 244.8 161 230Z" fill="#12447F" stroke="black" stroke-width="8"/>
<path d="M548.505 214.557C526.031 214.557 507.005 236.234 507.005 264.057C507.005 291.879 526.031 313.557 548.505 313.557C570.979 313.557 590.005 291.879 590.005 264.057C590.005 236.234 570.979 214.557 548.505 214.557Z" fill="white" stroke="black" stroke-width="6"/>
<path d="M379.505 214.557C357.031 214.557 338.005 236.234 338.005 264.057C338.005 291.879 357.031 313.557 379.505 313.557C401.979 313.557 421.005 291.879 421.005 264.057C421.005 236.234 401.979 214.557 379.505 214.557Z" fill="white" stroke="black" stroke-width="6"/>
<path d="M517.005 275.057C517.005 290.244 528.198 302.557 542.005 302.557C555.812 302.557 567.005 290.244 567.005 275.057C567.005 259.869 555.812 247.557 542.005 247.557C528.198 247.557 517.005 259.869 517.005 275.057Z" fill="#0C0C0C"/>
<path d="M349.005 275.057C349.005 290.244 360.198 302.557 374.005 302.557C387.812 302.557 399.005 290.244 399.005 275.057C399.005 259.869 387.812 247.557 374.005 247.557C360.198 247.557 349.005 259.869 349.005 275.057Z" fill="#0C0C0C"/>
<circle cx="6.5" cy="6.5" r="6.5" transform="matrix(-1 0 0 1 535.674 268)" fill="#FFF8F8"/>
<circle cx="6.5" cy="6.5" r="6.5" transform="matrix(-1 0 0 1 367.674 268)" fill="#FFF8F8"/>
<path fill-rule="evenodd" clip-rule="evenodd" d="M418 380.5C423.166 380.167 439.4 374.8 463 356C469 348 486.6 331.5 509 329.5C522.666 328.334 550.7 333.7 553.5 364.5C583 361.667 644.2 346.8 653 310C661.333 297.667 671.9 254.6 647.5 181C642.833 166 627.4 131.8 603 115C595.666 108.667 556.1 96.3001 456.5 97.5001C430.666 97.1667 363.5 102.2 301.5 125C278.666 134.167 235.8 165.8 247 219C261 285.5 252.5 278.5 277 329.5C282.667 342.833 305.1 371.6 347.5 376C358.333 379.667 387.2 384.9 418 380.5ZM443.5 346.5C414.901 353.673 388 346.5 367.5 346.5C347 346.5 325.333 337.167 314.5 329.5C288.5 315.9 278.667 276.833 277 259C266.2 213 288.833 181.5 301.5 171.5C317.5 158.868 343.5 149.667 362 149C380.4 144.2 446 142.333 476.5 142C565.5 140 550.5 139.899 580.5 149C625 162.5 628.329 201.567 630 208C640 246.5 647.5 292 630 310C611.6 332.8 594 336.5 587.5 335.5C563.9 335.5 539.333 322.833 530 316.5H503.5C486.7 314.1 468.91 340.126 443.5 346.5Z" fill="#12447F"/>
<path d="M503.5 316.5C486.7 314.1 468.91 340.126 443.5 346.5C414.901 353.673 388 346.5 367.5 346.5C347 346.5 325.333 337.167 314.5 329.5C288.5 315.9 278.667 276.833 277 259C266.2 213 288.833 181.5 301.5 171.5C317.5 158.868 343.5 149.667 362 149C380.4 144.2 446 142.333 476.5 142C565.5 140 550.5 139.899 580.5 149C625 162.5 628.329 201.567 630 208C640 246.5 647.5 292 630 310C611.6 332.8 594 336.5 587.5 335.5C563.9 335.5 539.333 322.833 530 316.5M503.5 316.5C504.5 316.5 511.2 316.5 530 316.5M503.5 316.5H530M418 380.5C423.166 380.167 439.4 374.8 463 356C469 348 486.6 331.5 509 329.5C522.666 328.334 550.7 333.7 553.5 364.5C583 361.667 644.2 346.8 653 310C661.333 297.667 671.9 254.6 647.5 181C642.833 166 627.4 131.8 603 115C595.666 108.667 556.1 96.3001 456.5 97.5001C430.666 97.1667 363.5 102.2 301.5 125C278.666 134.167 235.8 165.8 247 219C261 285.5 252.5 278.5 277 329.5C282.667 342.833 305.1 371.6 347.5 376C358.333 379.667 387.2 384.9 418 380.5Z" stroke="black" stroke-width="8"/>
</svg>
