<svg width="942" height="619" viewBox="0 0 942 619" fill="none" xmlns="http://www.w3.org/2000/svg">
<path d="M388.817 426.577C379.817 424.077 369.067 415.253 355.067 420.753C341.067 426.253 293.696 457.253 281.067 467.753C221.867 368.953 265.067 218.926 294.067 156.263C343.862 112.119 405.637 68.268 506.542 49.4833C441.137 79.5774 354.742 183.232 395.542 345.077C436.342 506.923 486.542 558.324 506.542 563.794C461.074 553.54 424.441 544.436 401.682 534.253C402.789 489.963 394.004 428.018 388.817 426.577Z" fill="#F15B29"/>
<path d="M255.067 599.253C181.067 567.253 241.567 498.253 281.067 467.753C293.696 457.253 341.067 426.253 355.067 420.753C369.067 415.253 379.817 424.077 388.817 426.577C394.004 428.018 402.789 489.963 401.682 534.253C400.868 566.809 398.897 595.864 396.567 599.253C391.067 607.253 347.567 639.253 255.067 599.253Z" fill="#F15B29"/>
<path d="M506.542 49.4833C405.637 68.268 343.862 112.119 294.067 156.263C269.444 178.091 240.062 194.55 224.137 215.577C195.778 167.577 215.317 151.077 215.317 141.077C230.137 118.577 268.567 104.916 294.067 95.7529C390.567 -2.74712 396.567 8.25288 428.067 0.752883C453.267 -5.24712 512.209 26.0254 539.042 44.4994C527.888 45.8553 517.058 47.5257 506.542 49.4833Z" fill="#F15B29"/>
<path d="M0.0671997 385.753C2.5672 321.753 10.5672 259.753 65.0672 238.753C74.4799 235.126 84.1863 235.007 93.817 237.366C201.417 376.396 123.11 460.436 70.507 485.077C38.8696 475.864 -1.88554 435.743 0.0671997 385.753Z" fill="#F15B29"/>
<path fill-rule="evenodd" clip-rule="evenodd" d="M941.317 309.577C937.317 243.577 913.984 208.244 908.817 201.577C888.895 157.077 818.531 69.1006 679.542 46.2392C609.209 79.0186 473.742 184.677 494.542 345.077C515.342 505.477 603.209 568.3 644.542 579.661C672.169 579.507 701.181 581.264 728.567 575.753C770.613 567.292 805.678 551.07 834.317 530.21C801.517 542.716 784.317 499.116 779.817 475.753C828.317 501.077 881.952 481.753 888.895 475.753C928.706 421.478 944.115 355.746 941.317 309.577ZM845.817 177.077C906.912 278.438 914.01 433.577 733.317 460.577C645.567 469.577 538.067 412.153 566.067 255.753C601.067 60.2529 791.817 87.4877 845.817 177.077Z" fill="#F15B29"/>
<path d="M552.042 43.0775C622.637 36.2054 642.236 40.1029 679.542 46.2392C609.209 79.0186 473.742 184.677 494.542 345.077C515.342 505.477 603.209 568.3 644.542 579.661C595.641 579.934 547.866 573.114 506.542 563.794C486.542 558.324 436.342 506.923 395.542 345.077C354.742 183.232 441.137 79.5774 506.542 49.4833C517.058 47.5257 527.888 45.8553 539.042 44.4994C543.328 43.9785 545.137 43.7497 552.042 43.0775Z" fill="white"/>
<path d="M205.567 398.753C170.367 444.353 120.817 479.577 93.817 485.077C87.5236 487.814 79.3733 487.659 70.507 485.077C123.11 460.436 201.417 376.396 93.817 237.366C128.796 245.933 162.777 287.184 178.067 311.753C182.282 307.739 193.709 255.753 224.137 215.577C240.062 194.55 269.444 178.091 294.067 156.263C265.067 218.926 221.867 368.953 281.067 467.753L205.567 398.753Z" fill="white"/>
<path d="M845.817 177.077C906.912 278.438 914.01 433.577 733.317 460.577C645.567 469.577 538.067 412.153 566.067 255.753C601.067 60.2529 791.817 87.4877 845.817 177.077Z" fill="white"/>
<path d="M779.817 475.753C828.317 501.077 881.952 481.753 888.895 475.753C874.278 495.68 856.168 514.295 834.317 530.21C801.517 542.716 784.317 499.116 779.817 475.753Z" fill="white"/>
<path d="M774.317 355.077C774.317 369.437 785.957 381.077 800.317 381.077C814.676 381.077 826.317 369.437 826.317 355.077C826.317 340.718 814.676 329.077 800.317 329.077C785.957 329.077 774.317 340.718 774.317 355.077Z" fill="black"/>
<path d="M805.317 355.077C805.317 358.667 808.227 361.577 811.817 361.577C815.407 361.577 818.317 358.667 818.317 355.077C818.317 351.488 815.407 348.577 811.817 348.577C808.227 348.577 805.317 351.488 805.317 355.077Z" fill="#FFFEFE"/>
<path d="M372.254 425.414C367.377 423.809 362.459 423.221 356.896 425.406C350.446 427.94 335.54 436.762 320.256 446.584C308.08 454.409 296.166 462.543 288.807 468.052L288.831 468.075L284.201 471.649L279.777 475.328L279.71 475.215C261.099 490.373 239.643 512.791 230.096 534.921C224.974 546.792 223.53 557.985 227.062 567.803C230.565 577.541 239.359 587.013 257.052 594.664C347.157 633.629 387.794 602.512 392.295 596.627C392.336 596.504 392.43 596.21 392.556 595.676C392.785 594.701 393.032 593.327 393.284 591.544C393.787 587.991 394.268 583.147 394.707 577.314C395.584 565.668 396.278 550.355 396.684 534.128C397.229 512.305 395.335 486.009 392.65 464.979C391.308 454.464 389.783 445.38 388.298 438.898C387.55 435.633 386.846 433.185 386.235 431.589C386.136 431.329 386.045 431.112 385.966 430.932C383.815 430.216 381.678 429.282 379.707 428.418C377.163 427.302 374.766 426.241 372.254 425.414ZM680.255 51.4297C645.731 67.7991 595.767 101.704 556.786 150.905C517.338 200.697 489.317 265.898 499.501 344.435C519.974 502.31 605.843 563.429 645.226 574.658C673.089 574.534 701.047 576.191 727.581 570.852C761.6 564.006 790.915 552.005 815.862 536.585C814.069 536.161 812.323 535.584 810.63 534.859C803.235 531.695 797.219 525.949 792.418 519.384C782.86 506.312 777.234 488.781 774.907 476.698L772.947 466.525L782.131 471.32C805.236 483.385 829.685 484.87 849.351 482.534C859.168 481.368 867.706 479.26 874.158 477.104C877.385 476.025 880.05 474.949 882.065 473.995C883.704 473.22 884.731 472.609 885.271 472.235C924.081 419.02 939.045 354.738 936.326 309.88C932.392 244.964 909.467 210.578 904.865 204.641L904.498 204.167L904.253 203.62C885.007 160.632 816.387 74.3774 680.255 51.4297ZM628.035 44.7744C609.986 43.9083 587.704 44.6294 552.526 48.0537C545.673 48.7209 543.906 48.945 539.646 49.4629C528.815 50.7794 518.296 52.3947 508.08 54.2832C444.819 83.7513 360.323 184.916 400.391 343.855C420.71 424.459 443.304 477.283 463.136 510.515C473.052 527.131 482.232 538.771 490.025 546.527C497.851 554.315 503.966 557.873 507.77 558.943C541.44 566.53 579.371 572.434 618.645 574.156C572.295 548.692 507.158 481.24 489.584 345.721C478.968 263.857 508.28 196.028 548.948 144.695C584.558 99.7481 629.011 67.2522 663.536 48.6924C651.646 46.8135 640.884 45.391 628.035 44.7744ZM477.038 61.1025C395.437 82.0112 342.17 120.407 298.17 159.311C283.936 190.35 266.339 242.53 259.455 299.062C252.726 354.32 256.316 413.038 282.522 460.266C290.26 454.453 302.576 446.06 314.85 438.172C329.909 428.494 345.689 419.065 353.239 416.099C361.675 412.785 369.133 413.859 375.381 415.916C378.431 416.92 381.283 418.19 383.724 419.26C386.275 420.379 388.307 421.246 390.155 421.76C392.384 422.379 393.587 424.137 394.036 424.836C394.649 425.791 395.152 426.911 395.574 428.014C396.432 430.254 397.257 433.227 398.045 436.664C399.631 443.587 401.205 453.027 402.569 463.714C405.162 484.027 407.045 509.259 406.744 530.998C424.647 538.533 450.547 545.578 482.482 553.123C474.083 544.662 464.587 532.459 454.549 515.639C434.08 481.341 411.174 427.542 390.693 346.3C354.74 203.679 416.079 104.974 477.038 61.1025ZM787.116 484.64C789.908 494.263 794.352 505.086 800.49 513.481C804.652 519.173 809.368 523.443 814.563 525.666C819.462 527.762 825.145 528.2 831.92 525.766C847.437 514.398 861.02 501.638 872.763 488.005C866.463 489.826 858.915 491.469 850.529 492.465C832.156 494.647 809.496 493.761 787.116 484.64ZM281.418 173.142C273.749 179.095 266.043 184.725 258.873 190.195C246.47 199.658 235.636 208.676 228.123 218.596C213.318 238.144 203.053 260.69 195.934 279.034C192.376 288.201 189.638 296.228 187.48 302.345C186.414 305.368 185.463 308 184.633 310.019C184.218 311.027 183.795 311.975 183.366 312.787C182.996 313.487 182.397 314.535 181.516 315.374L177.067 319.609L173.822 314.395C166.357 302.399 154.282 286.269 139.829 272.133C131.426 263.914 122.379 256.533 113.114 250.998C131.21 277.072 148.362 312.695 152.18 350.703C154.591 374.706 151.687 399.737 140.255 423.845C130.813 443.755 115.652 462.83 93.2236 480.093C105.612 477.443 123.845 467.852 143.608 452.959C163.442 438.013 184.303 418.117 201.609 395.697L204.93 391.396L208.94 395.062L264.461 445.802C245.407 399.943 243.545 346.998 249.529 297.853C255.359 249.975 268.697 205.199 281.418 173.142ZM90.9521 241.839C82.7193 240.095 74.6436 240.422 66.8652 243.419C41.3458 253.252 26.5719 272.625 17.7871 297.776C8.93118 323.131 6.31279 353.966 5.06348 385.948C4.14373 409.495 13.2769 430.881 26.5996 447.589C39.4322 463.682 55.8533 475.055 70.1133 479.721C95.1907 467.462 125.55 441.525 137.457 402.653C149.467 363.444 143.075 309.808 90.9521 241.839ZM698.273 104.536C758.825 97.9159 821.995 127.869 850.1 174.496C881.071 225.88 898.68 291.364 885.1 347.881C878.284 376.247 863.608 402.305 838.927 422.977C814.278 443.621 779.919 458.669 734.056 465.522L733.941 465.539L733.827 465.552C688.8 470.17 638.439 457.791 602.834 423.807C567.033 389.634 546.915 334.36 561.146 254.872C570.039 205.196 588.911 169.239 613.423 144.841C637.945 120.432 667.841 107.863 698.273 104.536ZM841.535 179.658C815.639 136.695 756.433 108.237 699.36 114.477C670.98 117.579 643.252 129.259 620.478 151.929C597.693 174.608 579.596 208.56 570.989 256.634C557.22 333.545 576.852 385.183 609.738 416.573C642.791 448.122 689.999 459.963 732.691 455.614C777.116 448.96 809.594 434.5 832.506 415.311C855.404 396.132 869.017 372.009 875.376 345.545C888.146 292.402 871.658 229.635 841.535 179.658ZM385.621 430.238C385.543 430.117 385.543 430.141 385.626 430.246C385.624 430.243 385.623 430.241 385.621 430.238ZM810.316 355.077C810.316 355.905 810.988 356.577 811.816 356.577C812.645 356.577 813.316 355.906 813.316 355.077C813.316 354.249 812.645 353.577 811.816 353.577C810.988 353.577 810.317 354.249 810.316 355.077ZM451.05 7.30957C441.792 4.99075 434.337 4.40036 429.226 5.61719C412.501 9.59916 404.631 8.44517 388.015 18.415C371.133 28.5442 345.913 49.9774 297.639 99.252L296.837 100.07L295.758 100.458C282.957 105.058 267.266 110.667 252.936 117.88C238.994 124.898 227.019 133.114 220.208 142.78C220.035 144.174 219.679 145.5 219.297 146.7C218.767 148.361 218.036 150.217 217.389 151.942C216.044 155.529 214.656 159.58 214.058 164.662C212.987 173.753 214.358 186.976 224.926 206.783C232.769 198.016 242.583 190.046 252.808 182.245C265.409 172.631 278.622 163.273 290.75 152.521C340.957 108.012 403.533 63.5733 505.627 44.5674C511.974 43.3859 518.433 42.3089 525.006 41.3408C512.507 33.6207 496.65 24.9662 480.923 18.0225C470.453 13.4001 460.167 9.59323 451.05 7.30957ZM800.316 355.077C800.317 348.726 805.465 343.577 811.816 343.577C814.77 343.577 817.463 344.691 819.5 346.521C816.224 339.188 808.867 334.077 800.316 334.077C788.719 334.077 779.317 343.479 779.316 355.077C779.316 366.675 788.719 376.077 800.316 376.077C808.868 376.077 816.226 370.965 819.501 363.631C817.464 365.462 814.771 366.577 811.816 366.577C805.465 366.577 800.316 361.428 800.316 355.077ZM769.316 355.077C769.317 337.957 783.196 324.077 800.316 324.077C817.437 324.077 831.316 337.956 831.316 355.077C831.316 372.198 817.437 386.077 800.316 386.077C783.196 386.077 769.316 372.198 769.316 355.077Z" stroke="black" stroke-width="10"/>
</svg>
