<svg width="684" height="625" viewBox="0 0 684 625" fill="none" xmlns="http://www.w3.org/2000/svg">
<path fill-rule="evenodd" clip-rule="evenodd" d="M259.706 219.568V245.568C211.539 257.111 183.316 284.071 167.706 311.393C165.925 314.51 164.309 317.631 162.846 320.735C154.021 339.455 150.77 357.533 150.706 370.068C149.348 384.326 151.099 397.207 154.877 408.686C155.479 410.516 156.133 412.31 156.834 414.068C159.748 421.38 169.771 438.497 174 444.568C178.551 451.102 177.388 446.49 182.706 451.571C194.554 462.891 207.332 470.587 216.706 474.568C324.306 516.568 428.873 495.402 467.706 479.568C469.023 477.594 470.642 476.8 472.488 476.967C482.256 471.485 490.777 465.629 498.194 459.568C502.608 455.962 506.631 452.284 510.292 448.568C509.566 445.935 510.767 445.034 513.32 445.401C521.461 436.616 527.651 427.684 532.281 419.068C534.175 415.544 535.807 412.073 537.206 408.686C543.728 392.895 545.155 378.948 544.206 370.068L537.206 338.068L514.706 296.568C490.306 262.568 445.206 248.402 425.706 245.568V224.568C477.306 198.968 475.206 160.235 467.706 144.068C455.706 111.668 424.706 109.902 410.706 113.068C372.306 122.668 368.206 154.568 368.206 167.068C368.206 190.068 385.539 211.068 398.706 219.568L392.706 240.568C351.906 230.168 310.039 236.235 294.206 240.568L289.206 219.568C300.406 209.168 305.206 203.902 306.206 202.568C328.606 168.168 315.539 139.902 306.206 130.068C284.606 108.468 260.206 112.568 250.206 117.568C210.706 129.568 214.873 159.402 216.706 176.068C223.106 208.068 248.04 218.402 259.706 219.568ZM436 328.068C457.5 344.068 495.206 469.705 467.706 436.568C461.873 397.735 431.2 328.068 436 328.068ZM374.5 345.068C380.5 367.068 387.5 488.568 374.5 474.568C368.431 433.068 359.935 349.868 374.5 345.068ZM301.5 341.068C294.206 387.568 298.5 480.568 294.206 471.068C271.5 463.568 289.206 319.568 301.5 341.068ZM235 328.068C223.794 344.068 201.5 400.686 210 436.568C212.669 447.835 253.092 302.237 235 328.068Z" fill="#E53F28"/>
<path d="M619.206 393.068C602.406 373.868 562.206 369.735 544.206 370.068C545.155 378.948 543.728 392.895 537.206 408.686C539.901 402.781 580.996 417.147 601.206 425.068C610.806 429.068 642.206 471.735 656.706 492.568C663.106 446.168 634.373 406.902 619.206 393.068Z" fill="#E53F28"/>
<path d="M601.206 459.568C601.206 443.568 555.256 425.902 532.281 419.068C527.651 427.684 521.461 436.616 513.32 445.401C523.175 446.818 553.175 467.125 570.206 479.568C563.806 483.568 580.206 543.568 589.206 573.068C610.006 545.068 605.873 485.735 601.206 459.568Z" fill="#E53F28"/>
<path d="M551.206 527.568C545.606 491.168 513.531 467.068 498.194 459.568C490.777 465.629 482.256 471.485 472.488 476.967C484.1 478.022 504.639 517.134 514.706 539.568C500.646 607.855 512.514 623.021 520.206 622.068C537.816 610.068 548.21 554.068 551.206 527.568Z" fill="#E53F28"/>
<path d="M182.706 539.568C180.306 518.368 204.373 487.402 216.706 474.568C207.332 470.587 194.554 462.891 182.706 451.571C147.506 491.973 146.706 537.07 150.706 554.568C162.706 594.568 190.373 616.235 202.706 622.068C213.906 622.068 194.039 567.068 182.706 539.568Z" fill="#E53F28"/>
<path d="M127.206 488.568C137.606 461.368 164.833 451.376 174 444.568C169.771 438.497 159.748 421.38 156.834 414.068C120.136 426.068 88.2061 474.568 88.2061 502.568C100.206 590.168 116.539 586.068 123.206 573.068C120.006 560.268 124.539 511.402 127.206 488.568Z" fill="#E53F28"/>
<path d="M150.706 370.068C133.206 370.068 91.2061 368.804 54.2061 408.686C34.833 429.568 28.2061 457.368 32.2061 488.568C35.5395 490.849 49.6063 483.157 79.2062 434.145C91.3312 414.068 132.614 400.381 154.877 408.686C151.099 397.207 149.348 384.326 150.706 370.068Z" fill="#E53F28"/>
<path d="M563.206 219.568C560.806 267.168 529.873 290.735 514.706 296.568L537.206 338.068C550.006 345.268 577.206 318.735 589.206 304.568C610.006 282.568 617.873 240.402 619.206 224.568C665.445 216.568 679.472 167.568 680.706 144.068C683.906 66.8683 613.706 18.9017 578.206 4.56836C584.606 19.7684 580.873 77.235 578.206 104.068C573.406 109.668 542.873 68.735 528.206 47.5684C506.606 77.1684 505.539 124.235 507.706 144.068C518.906 190.468 549.373 213.735 563.206 219.568Z" fill="#E53F28"/>
<path d="M79.2062 296.568C108.806 337.368 139.206 345.235 150.706 344.068L162.846 320.735C164.309 317.631 165.925 314.51 167.706 311.393C136.506 299.653 125.039 262.618 123.206 245.568C141.606 236.768 160.539 213.235 167.706 202.568C187.706 127.368 164.706 86.9017 150.706 76.0684C150.706 88.0684 120.373 117.068 105.206 130.068C93.2061 118.868 100.206 59.0683 105.206 30.5684C34.4061 56.9684 7.37281 132.568 2.70619 167.068C-0.893808 217.468 43.5395 240.402 66.2062 245.568C65.4062 266.368 74.5395 288.235 79.2062 296.568Z" fill="#E53F28"/>
<path d="M436 328.068C457.5 344.068 495.206 469.705 467.706 436.568C461.873 397.735 431.2 328.068 436 328.068Z" fill="#C13200"/>
<path d="M374.5 345.068C380.5 367.068 387.5 488.568 374.5 474.568C368.431 433.068 359.935 349.868 374.5 345.068Z" fill="#C13200"/>
<path d="M301.5 341.068C294.206 387.568 298.5 480.568 294.206 471.068C271.5 463.568 289.206 319.568 301.5 341.068Z" fill="#C13200"/>
<path d="M235 328.068C223.794 344.068 201.5 400.686 210 436.568C212.669 447.835 253.092 302.237 235 328.068Z" fill="#C13200"/>
<path d="M514.706 296.568C490.306 262.568 445.206 248.402 425.706 245.568V224.568C477.306 198.968 475.206 160.235 467.706 144.068C455.706 111.668 424.706 109.902 410.706 113.068C372.306 122.668 368.206 154.568 368.206 167.068C368.206 190.068 385.539 211.068 398.706 219.568L392.706 240.568C351.906 230.168 310.039 236.235 294.206 240.568L289.206 219.568C300.406 209.168 305.206 203.902 306.206 202.568C328.606 168.168 315.539 139.902 306.206 130.068C284.606 108.468 260.206 112.568 250.206 117.568C210.706 129.568 214.873 159.402 216.706 176.068C223.106 208.068 248.04 218.402 259.706 219.568V245.568C211.539 257.111 183.316 284.071 167.706 311.393M514.706 296.568C529.873 290.735 560.806 267.168 563.206 219.568C549.373 213.735 518.906 190.468 507.706 144.068C505.539 124.235 506.606 77.1684 528.206 47.5684C542.873 68.735 573.406 109.668 578.206 104.068C580.873 77.235 584.606 19.7684 578.206 4.56836C613.706 18.9017 683.906 66.8683 680.706 144.068C679.472 167.568 665.445 216.568 619.206 224.568C617.873 240.402 610.006 282.568 589.206 304.568C577.206 318.735 550.006 345.268 537.206 338.068M514.706 296.568L537.206 338.068M537.206 338.068L544.206 370.068M544.206 370.068C562.206 369.735 602.406 373.868 619.206 393.068C634.373 406.902 663.106 446.168 656.706 492.568C642.206 471.735 610.806 429.068 601.206 425.068C580.996 417.147 539.901 402.781 537.206 408.686M544.206 370.068C545.155 378.948 543.728 392.895 537.206 408.686M467.706 479.568C428.873 495.402 324.306 516.568 216.706 474.568M467.706 479.568C469.023 477.594 470.642 476.8 472.488 476.967M467.706 479.568C469.332 478.711 470.926 477.844 472.488 476.967M216.706 474.568C204.373 487.402 180.306 518.368 182.706 539.568C194.039 567.068 213.906 622.068 202.706 622.068C190.373 616.235 162.706 594.568 150.706 554.568C146.706 537.07 147.506 491.973 182.706 451.571M216.706 474.568C207.332 470.587 194.554 462.891 182.706 451.571M150.706 370.068C133.206 370.068 91.2061 368.804 54.2061 408.686C34.833 429.568 28.2061 457.368 32.2061 488.568C35.5395 490.849 49.6063 483.157 79.2062 434.145C91.3312 414.068 132.614 400.381 154.877 408.686M150.706 370.068C149.348 384.326 151.099 397.207 154.877 408.686M150.706 370.068C150.77 357.533 154.021 339.455 162.846 320.735M167.706 311.393C136.506 299.653 125.039 262.618 123.206 245.568C141.606 236.768 160.539 213.235 167.706 202.568C187.706 127.368 164.706 86.9017 150.706 76.0684C150.706 88.0684 120.373 117.068 105.206 130.068C93.2061 118.868 100.206 59.0683 105.206 30.5684C34.4061 56.9684 7.37281 132.568 2.70619 167.068C-0.893808 217.468 43.5395 240.402 66.2062 245.568C65.4062 266.368 74.5395 288.235 79.2062 296.568C108.806 337.368 139.206 345.235 150.706 344.068L162.846 320.735M167.706 311.393C165.925 314.51 164.309 317.631 162.846 320.735M167.706 311.393L162.846 320.735M537.206 408.686C535.807 412.073 534.175 415.544 532.281 419.068M532.281 419.068C555.256 425.902 601.206 443.568 601.206 459.568C605.873 485.735 610.006 545.068 589.206 573.068C580.206 543.568 563.806 483.568 570.206 479.568C553.175 467.125 523.175 446.818 513.32 445.401M532.281 419.068C527.651 427.684 521.461 436.616 513.32 445.401M510.292 448.568C506.631 452.284 502.608 455.962 498.194 459.568M510.292 448.568C509.566 445.935 510.767 445.034 513.32 445.401M510.292 448.568C511.33 447.515 512.339 446.459 513.32 445.401M498.194 459.568C513.531 467.068 545.606 491.168 551.206 527.568C548.21 554.068 537.816 610.068 520.206 622.068C512.514 623.021 500.646 607.855 514.706 539.568C504.639 517.134 484.1 478.022 472.488 476.967M498.194 459.568C490.777 465.629 482.256 471.485 472.488 476.967M182.706 451.571C177.388 446.49 178.551 451.102 174 444.568M174 444.568C164.833 451.376 137.606 461.368 127.206 488.568C124.539 511.402 120.006 560.268 123.206 573.068C116.539 586.068 100.206 590.168 88.2061 502.568C88.2061 474.568 120.136 426.068 156.834 414.068M174 444.568C169.771 438.497 159.748 421.38 156.834 414.068M156.834 414.068C156.133 412.31 155.479 410.516 154.877 408.686M436 328.068C457.5 344.068 495.206 469.705 467.706 436.568C461.873 397.735 431.2 328.068 436 328.068ZM374.5 345.068C380.5 367.068 387.5 488.568 374.5 474.568C368.431 433.068 359.935 349.868 374.5 345.068ZM301.5 341.068C294.206 387.568 298.5 480.568 294.206 471.068C271.5 463.568 289.206 319.568 301.5 341.068ZM235 328.068C223.794 344.068 201.5 400.686 210 436.568C212.669 447.835 253.092 302.237 235 328.068Z" stroke="#A00F00" stroke-width="5"/>
<path d="M464.5 164.568C464.5 187.764 445.248 206.568 421.5 206.568C397.752 206.568 378.5 187.764 378.5 164.568C378.5 141.372 397.752 122.568 421.5 122.568C445.248 122.568 464.5 141.372 464.5 164.568Z" fill="#FFFEFE"/>
<path d="M446.5 164.068C446.5 179.256 434.188 191.568 419 191.568C403.812 191.568 391.5 179.256 391.5 164.068C391.5 148.881 403.812 136.568 419 136.568C434.188 136.568 446.5 148.881 446.5 164.068Z" fill="#0E0D0D"/>
<path d="M433.5 149.568C433.5 152.882 430.814 155.568 427.5 155.568C424.186 155.568 421.5 152.882 421.5 149.568C421.5 146.255 424.186 143.568 427.5 143.568C430.814 143.568 433.5 146.255 433.5 149.568Z" fill="#FFF9F9"/>
<path d="M310.5 164.568C310.5 187.764 291.248 206.568 267.5 206.568C243.752 206.568 224.5 187.764 224.5 164.568C224.5 141.372 243.752 122.568 267.5 122.568C291.248 122.568 310.5 141.372 310.5 164.568Z" fill="#FFFEFE"/>
<path d="M292.5 164.068C292.5 179.256 280.188 191.568 265 191.568C249.812 191.568 237.5 179.256 237.5 164.068C237.5 148.881 249.812 136.568 265 136.568C280.188 136.568 292.5 148.881 292.5 164.068Z" fill="#0E0D0D"/>
<path d="M279.5 149.568C279.5 152.882 276.814 155.568 273.5 155.568C270.186 155.568 267.5 152.882 267.5 149.568C267.5 146.255 270.186 143.568 273.5 143.568C276.814 143.568 279.5 146.255 279.5 149.568Z" fill="#FFF9F9"/>
<path d="M319.5 290.604C331.833 300.932 363.7 313.184 392.5 279.568" stroke="#0D0D0D" stroke-width="5"/>
<path d="M385.499 206.568H419.99H451C489.5 160.068 455.768 111.568 419.99 111.568C381.349 111.568 350.5 163.568 385.499 206.568Z" fill="#E53F28" stroke="#A00F00" stroke-width="5"/>
<path d="M233.796 206.568H268.286H299.297C337.797 160.068 304.065 111.568 268.286 111.568C229.646 111.568 198.796 163.568 233.796 206.568Z" fill="#E53F28" stroke="#A00F00" stroke-width="5"/>
</svg>
