<svg width="708" height="573" viewBox="0 0 708 573" fill="none" xmlns="http://www.w3.org/2000/svg">
<path fill-rule="evenodd" clip-rule="evenodd" d="M201.357 145.18C82.5569 172.78 19.3569 279.68 2.60693 329.68C14.8569 334.93 52.4069 342.28 104.607 329.68C93.1069 342.93 59.6069 372.43 24.3569 372.43C116.757 466.03 242.107 488.18 295.107 493.93C355.107 500.44 487.107 455.23 520.107 429.43L561.357 400.93C608.757 349.883 581.107 291.161 561.357 268.18C532.857 226.18 496.857 208.18 454.107 186.43C415.857 160.18 283.857 122.68 201.357 145.18ZM223.107 369.43C254.307 332.83 261.607 304.68 261.357 295.18C274.107 283.93 332.607 271.18 349.857 271.18C368.607 280 360.107 283 360.107 295.18C418.607 312.43 410.607 316.18 415.857 329.68C418.257 387.88 343.357 392.93 307.107 388.18C313.707 477.58 253.857 412.93 223.107 369.43Z" fill="#F4B8AE"/>
<path d="M324.357 4.93025C263.757 19.3303 217.107 104.43 201.357 145.18C283.857 122.68 415.857 160.18 454.107 186.43C500.907 141.43 460.607 129.68 434.607 129.43C454.857 43.9304 371.607 82.1803 378.357 78.4303C385.107 74.6803 400.107 -13.0697 324.357 4.93025Z" fill="#E87185"/>
<path d="M491.607 466.93C521.607 463.93 523.107 440.68 520.107 429.43C487.107 455.23 355.107 500.44 295.107 493.93C422.307 609.13 442.357 557.68 434.607 512.68C506.607 537.88 502.607 492.68 491.607 466.93Z" fill="#E87185"/>
<path d="M679.857 205.18C629.457 183.58 579.857 238.18 561.357 268.18C581.107 291.161 608.757 349.883 561.357 400.93C622.857 472.181 668.607 440.68 679.857 440.68C726.657 386.68 654.857 344.18 613.107 329.68C626.907 329.68 663.357 306.68 679.857 295.18C725.457 248.38 698.857 215.68 679.857 205.18Z" fill="#E87185"/>
<path d="M261.357 295.18C261.607 304.68 254.307 332.83 223.107 369.43C253.857 412.93 313.707 477.58 307.107 388.18C343.357 392.93 418.257 387.88 415.857 329.68C410.607 316.18 418.607 312.43 360.107 295.18C360.107 283 368.607 280 349.857 271.18C332.607 271.18 274.107 283.93 261.357 295.18Z" fill="#E87185"/>
<path d="M2.60693 329.68C12.8069 368.68 17.6069 369.43 24.3569 372.43C59.6069 372.43 93.1069 342.93 104.607 329.68C52.4069 342.28 14.8569 334.93 2.60693 329.68Z" fill="white"/>
<path d="M2.60693 329.68C19.3569 279.68 82.5569 172.78 201.357 145.18M2.60693 329.68C12.8069 368.68 17.6069 369.43 24.3569 372.43M2.60693 329.68C14.8569 334.93 52.4069 342.28 104.607 329.68C93.1069 342.93 59.6069 372.43 24.3569 372.43M201.357 145.18C217.107 104.43 263.757 19.3303 324.357 4.93025C400.107 -13.0697 385.107 74.6803 378.357 78.4303C371.607 82.1803 454.857 43.9304 434.607 129.43C460.607 129.68 500.907 141.43 454.107 186.43M201.357 145.18C283.857 122.68 415.857 160.18 454.107 186.43M454.107 186.43C496.857 208.18 532.857 226.18 561.357 268.18M561.357 268.18C579.857 238.18 629.457 183.58 679.857 205.18C698.857 215.68 725.457 248.38 679.857 295.18C663.357 306.68 626.907 329.68 613.107 329.68C654.857 344.18 726.657 386.68 679.857 440.68C668.607 440.68 622.857 472.181 561.357 400.93M561.357 268.18C581.107 291.161 608.757 349.883 561.357 400.93M561.357 400.93L520.107 429.43M520.107 429.43C523.107 440.68 521.607 463.93 491.607 466.93C502.607 492.68 506.607 537.88 434.607 512.68C442.357 557.68 422.307 609.13 295.107 493.93M520.107 429.43C487.107 455.23 355.107 500.44 295.107 493.93M295.107 493.93C242.107 488.18 116.757 466.03 24.3569 372.43M261.357 295.18C261.607 304.68 254.307 332.83 223.107 369.43C253.857 412.93 313.707 477.58 307.107 388.18C343.357 392.93 418.257 387.88 415.857 329.68C410.607 316.18 418.607 312.43 360.107 295.18C360.107 283 368.607 280 349.857 271.18C332.607 271.18 274.107 283.93 261.357 295.18Z" stroke="black" stroke-width="5"/>
<ellipse cx="160.107" cy="256.931" rx="61.5" ry="59.25" fill="white" stroke="black" stroke-width="5"/>
<circle cx="133.857" cy="261.431" r="35.25" fill="black"/>
<circle cx="115.857" cy="261.431" r="11.25" fill="#FFFCFC"/>
<path d="M430.107 174.5C435.607 166.333 448.107 147.2 454.107 136L464.607 138C457.94 151 444.607 175.7 440.607 178.5C436.607 178.5 431.94 175.833 430.107 174.5Z" fill="#F7C143"/>
<path d="M398.607 163C404.107 150 419.207 120.2 435.607 105V125C433.774 124.833 426.207 132.9 410.607 166.5C407.807 166.5 401.44 164.166 398.607 163Z" fill="#F7C143"/>
<path d="M366.107 151.5C374.274 132 394.107 91.8995 414.107 77.4995L425.607 80.4995C414.774 90.1662 390.607 118.4 380.607 154L366.107 151.5Z" fill="#F7C143"/>
<path d="M333.607 143C339.774 126.166 361.107 87.9995 380.607 71.9995L387.607 77.4995C380.44 83.9995 361.607 106.7 343.607 145.5L333.607 143Z" fill="#F7C143"/>
<path d="M295.607 138C303.607 110.5 329.907 50.5995 373.107 18.9995L380.607 30.9995C366.274 42.1662 328.107 75.4995 310.107 140L295.607 138Z" fill="#F7C143"/>
<path d="M248.107 136C263.607 94.4995 316.607 10.9995 333.607 6.49951H346.607C328.607 28.9995 286.107 82.4995 263.107 136H248.107Z" fill="#F7C143"/>
<path d="M430.107 174.5C435.607 166.333 448.107 147.2 454.107 136L464.607 138C457.94 151 444.607 175.7 440.607 178.5C436.607 178.5 431.94 175.833 430.107 174.5Z" stroke="black" stroke-width="5"/>
<path d="M398.607 163C404.107 150 419.207 120.2 435.607 105V125C433.774 124.833 426.207 132.9 410.607 166.5C407.807 166.5 401.44 164.166 398.607 163Z" stroke="black" stroke-width="5"/>
<path d="M366.107 151.5C374.274 132 394.107 91.8995 414.107 77.4995L425.607 80.4995C414.774 90.1662 390.607 118.4 380.607 154L366.107 151.5Z" stroke="black" stroke-width="5"/>
<path d="M333.607 143C339.774 126.166 361.107 87.9995 380.607 71.9995L387.607 77.4995C380.44 83.9995 361.607 106.7 343.607 145.5L333.607 143Z" stroke="black" stroke-width="5"/>
<path d="M295.607 138C303.607 110.5 329.907 50.5995 373.107 18.9995L380.607 30.9995C366.274 42.1662 328.107 75.4995 310.107 140L295.607 138Z" stroke="black" stroke-width="5"/>
<path d="M248.107 136C263.607 94.4995 316.607 10.9995 333.607 6.49951H346.607C328.607 28.9995 286.107 82.4995 263.107 136H248.107Z" stroke="black" stroke-width="5"/>
<path d="M488.1 446.392C492.147 450.225 499.605 457.499 505.105 462.999L513.605 457.499C508.506 451.237 500.853 443.151 498.105 441.999C495.532 442.307 489.196 445.556 488.1 446.392Z" fill="#F7C143"/>
<path d="M460.605 460.999C464.954 467.352 483.107 489.338 494.605 495.999L491.605 478.505C490.436 478.733 483.735 472.811 471.605 456.499C469.804 456.715 459.63 459.575 460.605 460.999Z" fill="#F7C143"/>
<path d="M431.001 470.624C437.47 480.159 465.841 512.857 479.605 518.824L491.605 513.499C484.033 509.295 455.605 485.435 443.763 468.206L431.001 470.624Z" fill="#F7C143"/>
<path d="M402.605 479.499C407.622 487.798 425.102 506.661 438.644 513.499L453.605 513.499C448.59 510.663 427.103 494.837 413.105 475.999L402.605 479.499Z" fill="#F7C143"/>
<path d="M368.605 485.999C375.466 499.717 402.605 527.499 433.105 544.499L435.605 535.499C431.001 527.999 397.605 508.999 380.957 483.32L368.605 485.999Z" fill="#F7C143"/>
<path d="M328.106 495.999C340.664 516.436 399.89 562.962 411.107 564L419.607 560.5C406.607 549 358.236 519.113 340.105 492.999L328.106 495.999Z" fill="#F7C143"/>
<path d="M488.1 446.392C492.147 450.225 499.605 457.499 505.105 462.999L513.605 457.499C508.506 451.237 500.853 443.151 498.105 441.999C495.532 442.307 489.196 445.556 488.1 446.392Z" stroke="black" stroke-width="5"/>
<path d="M460.605 460.999C464.954 467.352 483.107 489.338 494.605 495.999L491.605 478.505C490.436 478.733 483.735 472.811 471.605 456.499C469.804 456.715 459.63 459.575 460.605 460.999Z" stroke="black" stroke-width="5"/>
<path d="M431.001 470.624C437.47 480.159 465.841 512.857 479.605 518.824L491.605 513.499C484.033 509.295 455.605 485.435 443.763 468.206L431.001 470.624Z" stroke="black" stroke-width="5"/>
<path d="M402.605 479.499C407.622 487.798 425.102 506.661 438.644 513.499L453.605 513.499C448.59 510.663 427.103 494.837 413.105 475.999L402.605 479.499Z" stroke="black" stroke-width="5"/>
<path d="M368.605 485.999C375.466 499.717 402.605 527.499 433.105 544.499L435.605 535.499C431.001 527.999 397.605 508.999 380.957 483.32L368.605 485.999Z" stroke="black" stroke-width="5"/>
<path d="M328.106 495.999C340.664 516.436 399.89 562.962 411.107 564L419.607 560.5C406.607 549 358.236 519.113 340.105 492.999L328.106 495.999Z" stroke="black" stroke-width="5"/>
<path d="M228.107 364.5L236.107 354C255.44 365.5 296.107 387 307.607 387V401.5C292.94 396.666 256.507 386.1 228.107 364.5Z" fill="#F7C143"/>
<path d="M260.107 309.5L263.107 297C294.107 295.5 356.907 288.3 360.107 283.5V297C360.107 299.8 294.607 313.5 260.107 309.5Z" fill="#F7C143"/>
<path d="M250.147 333.086C301.814 334.919 406.547 335.786 412.147 324.586L413.107 344.086C366.94 348.252 268.307 354.086 243.107 344.086L250.147 333.086Z" fill="#F7C143"/>
<path d="M360.107 283.5C356.907 288.3 294.107 295.5 263.107 297L260.107 309.5C294.607 313.5 360.107 299.8 360.107 297M360.107 283.5C360.107 287 360.107 294.2 360.107 297M360.107 283.5V297M250.147 333.086C301.814 334.919 406.547 335.786 412.147 324.586L413.107 344.086C366.94 348.252 268.307 354.086 243.107 344.086L250.147 333.086ZM228.107 364.5L236.107 354C255.44 365.5 296.107 387 307.607 387V401.5C292.94 396.666 256.507 386.1 228.107 364.5Z" stroke="black" stroke-width="5"/>
<path d="M430.607 227.038C430.607 243.097 417.821 248.5 403.565 248.5C389.309 248.5 371.607 243.097 371.607 227.038C371.607 210.979 389.309 203.5 403.565 203.5C417.821 203.5 430.607 210.979 430.607 227.038Z" fill="#E87185"/>
<path d="M472.607 273.5C472.607 285.097 462.205 289 450.607 289C439.009 289 424.607 285.097 424.607 273.5C424.607 261.902 439.009 256.5 450.607 256.5C462.205 256.5 472.607 261.902 472.607 273.5Z" fill="#E87185"/>
<path d="M489.607 239.053C489.607 247.618 482.022 250.5 473.565 250.5C465.108 250.5 454.607 247.618 454.607 239.053C454.607 230.489 465.108 226.5 473.565 226.5C482.022 226.5 489.607 230.489 489.607 239.053Z" fill="#E87185"/>
<path d="M571.607 387L578.607 376.5C605.607 394.833 659.107 424.5 685.107 430.5L674.107 442.5C659.774 440.166 619.207 425.8 571.607 387Z" fill="#F7C143"/>
<path d="M587.107 343.5L584.607 358.5C609.44 375.833 666.007 410.2 693.607 409V394.5C675.44 389.166 628.707 371.5 587.107 343.5Z" fill="#F7C143"/>
<path d="M584.607 311L580.607 300C620.44 285 700.707 251.5 703.107 237.5V256C670.94 274.333 602.207 311 584.607 311Z" fill="#F7C143"/>
<path d="M569.107 276.5L575.107 287C614.94 267.333 694.407 226 693.607 218L684.107 208C653.274 227.333 587.107 268.1 569.107 276.5Z" fill="#F7C143"/>
<path d="M571.607 387L578.607 376.5C605.607 394.833 659.107 424.5 685.107 430.5L674.107 442.5C659.774 440.166 619.207 425.8 571.607 387Z" stroke="black" stroke-width="5"/>
<path d="M587.107 343.5L584.607 358.5C609.44 375.833 666.007 410.2 693.607 409V394.5C675.44 389.166 628.707 371.5 587.107 343.5Z" stroke="black" stroke-width="5"/>
<path d="M584.607 311L580.607 300C620.44 285 700.707 251.5 703.107 237.5V256C670.94 274.333 602.207 311 584.607 311Z" stroke="black" stroke-width="5"/>
<path d="M569.107 276.5L575.107 287C614.94 267.333 694.407 226 693.607 218L684.107 208C653.274 227.333 587.107 268.1 569.107 276.5Z" stroke="black" stroke-width="5"/>
</svg>
