<svg width="770" height="985" viewBox="0 0 770 985" fill="none" xmlns="http://www.w3.org/2000/svg">
<path d="M340.694 978.501C387.404 981.519 437.208 985.743 437.208 978.501C437.208 969.448 549.64 740.612 652.294 717.075C754.949 693.537 776.132 653.705 764.725 612.062C753.319 570.418 686.512 612.062 652.294 655.515C614.274 685.088 569.193 684.485 693.03 445.489C725.619 420.744 783.301 362.927 753.319 329.612C723.338 296.298 700.634 347.114 693.03 376.687C671.304 421.952 634.37 465.043 660.441 275.295C673.477 247.533 701.177 187.301 707.695 168.472C715.842 144.934 691.401 110.533 671.848 139.502C652.294 168.472 649.035 240.894 632.741 240.894C616.447 240.894 601.782 103.29 621.335 56.2152C640.888 9.14024 574.081 -14.3972 565.934 16.3825C557.787 47.1623 559.416 114.154 574.081 231.842C588.746 349.529 521.939 282.538 528.457 231.842C534.975 181.146 497.498 164.85 484.462 192.009C471.427 219.168 548.01 354.961 538.234 365.824C552.899 414.106 580.599 520.809 574.081 561.366C565.934 612.062 528.457 575.851 528.457 561.366C528.457 546.881 530.086 465.406 507.274 479.89C484.462 494.375 517.051 619.305 517.051 637.41C517.051 655.515 507.274 780.445 437.208 780.445C425.802 779.842 413.419 745.32 455.132 612.062C461.105 592.753 443.733 525.184 437.213 499.823L437.208 499.807C430.691 474.458 507.926 404.208 484.462 376.687C455.132 342.287 394.843 253.569 416.026 206.494C437.208 159.419 481.203 86.994 468.168 56.2152C455.132 25.4363 404.62 63.4592 394.843 152.176C389.955 176.317 388.326 168.472 354.107 77.9429C319.888 -12.5858 264.489 10.9517 292.188 92.4275C319.888 173.903 410.486 356.047 394.843 403.846C375.29 463.595 435.579 635.599 394.843 655.515C378.549 659.74 341.723 615.321 324.777 403.846C298.706 346.511 245.912 233.651 243.305 240.894C240.046 249.947 269.376 152.176 256.341 152.176C256.341 125.018 208.103 101.372 209.087 155.798C209.087 155.798 211.03 164.216 210.716 165.44C214.815 190.618 220.174 230.739 215.605 240.894C203.655 254.244 183.489 220.978 135.763 125.018C101.543 56.2152 9.31825 18.194 135.763 271.674C153.685 297.022 235.485 320.198 256.341 391.172C282.411 479.89 230.27 454.542 292.188 561.366C306.31 578.265 330.316 612.062 313.37 612.062C292.188 612.062 262.857 619.304 199.31 458.163C185.731 429.798 157.596 390.086 153.685 458.163C169.98 491.961 197.68 562.09 178.127 572.229C160.203 578.265 108.061 570.419 42.8836 490.754C19.5284 480.494 -18.3832 477.718 16.8126 548.692C39.6248 572.23 108.061 622.926 199.31 637.41C241.132 654.309 324.777 703.677 324.777 765.961C324.777 843.815 314.623 976.978 340.694 978.501Z" fill="#AC8FA5"/>
<path d="M209.087 155.798C208.103 101.372 256.341 125.018 256.341 152.176C269.376 152.176 240.046 249.947 243.305 240.894C245.912 233.651 298.706 346.511 324.777 403.846C341.723 615.321 378.549 659.74 394.843 655.515C435.579 635.599 375.29 463.595 394.843 403.846C410.486 356.047 319.888 173.903 292.188 92.4275C264.489 10.9517 319.888 -12.5858 354.107 77.9429C388.326 168.472 389.955 176.317 394.843 152.176C404.62 63.4592 455.132 25.4363 468.168 56.2152C481.203 86.994 437.208 159.419 416.026 206.494C394.843 253.569 455.132 342.287 484.462 376.687C507.926 404.208 430.691 474.458 437.208 499.807L437.213 499.823C443.733 525.184 461.105 592.753 455.132 612.062C413.419 745.32 425.802 779.842 437.208 780.445C507.274 780.445 517.051 655.515 517.051 637.41C517.051 619.305 484.462 494.375 507.274 479.89C530.086 465.406 528.457 546.881 528.457 561.366C528.457 575.851 565.934 612.062 574.081 561.366C580.599 520.809 552.899 414.106 538.234 365.824C548.01 354.961 471.427 219.168 484.462 192.009C497.498 164.85 534.975 181.146 528.457 231.842C521.939 282.538 588.746 349.529 574.081 231.842C559.416 114.154 557.787 47.1623 565.934 16.3825C574.081 -14.3972 640.888 9.14024 621.335 56.2152C601.782 103.29 616.447 240.894 632.741 240.894C649.035 240.894 652.294 168.472 671.848 139.502C691.401 110.533 715.842 144.934 707.695 168.472C701.177 187.301 673.477 247.533 660.441 275.295C634.37 465.043 671.304 421.952 693.03 376.687C700.634 347.114 723.338 296.298 753.319 329.612C783.301 362.927 725.619 420.744 693.03 445.489C569.193 684.485 614.274 685.088 652.294 655.515C686.512 612.062 753.319 570.418 764.725 612.062C776.132 653.705 754.949 693.537 652.294 717.075C549.64 740.612 437.208 969.448 437.208 978.501C437.208 985.743 387.404 981.519 340.694 978.501C314.623 976.978 324.777 843.815 324.777 765.961C324.777 703.677 241.132 654.309 199.31 637.41C108.061 622.926 39.6248 572.23 16.8126 548.692C-18.3832 477.718 19.5284 480.494 42.8836 490.754C108.061 570.419 160.203 578.265 178.127 572.229C197.68 562.09 169.98 491.961 153.685 458.163C157.596 390.086 185.731 429.798 199.31 458.163C262.857 619.304 292.188 612.062 313.37 612.062C330.316 612.062 306.31 578.265 292.188 561.366C230.27 454.542 282.411 479.89 256.341 391.172C235.485 320.198 153.685 297.022 135.763 271.674C9.31825 18.194 101.543 56.2152 135.763 125.018C183.489 220.978 203.655 254.244 215.605 240.894M209.087 155.798C209.087 155.798 211.03 164.216 210.716 165.44C214.815 190.618 220.174 230.739 215.605 240.894M209.087 155.798C213.104 178.695 220.819 229.305 215.605 240.894" stroke="black" stroke-width="5"/>
</svg>
