<svg width="698" height="698" viewBox="0 0 698 698" fill="none" xmlns="http://www.w3.org/2000/svg">
<path d="M154.363 313.951C179.222 172.95 208.053 156.95 232.91 138.951C374.095 75.9503 541.629 173.787 580.661 232C667.86 362.05 614.907 291.406 655.671 338.5C696.436 385.595 701.225 385.066 690.728 397.566C661.792 432.027 654.82 443.379 601.044 496.517C545.382 551.516 438.739 635.95 273.674 616.951C177.445 605.875 130.293 450.475 154.363 313.951Z" fill="#F8C2E2" stroke="black" stroke-width="5"/>
<path d="M555.067 536.95C559.044 560.95 563.618 614.35 550.096 635.95M561.033 531.95C566.004 557.283 572.169 614.15 557.056 638.95" stroke="black" stroke-width="5"/>
<path d="M527.228 556.95C533.856 567.95 540.153 599.95 549.101 634.95C556.749 664.863 601.797 567.95 588.872 508.95C588.872 508.95 570.283 524.437 558.05 533.95C546.193 543.17 527.228 556.95 527.228 556.95Z" fill="#9BD0E3" stroke="black" stroke-width="5"/>
<path d="M155.376 306.946C122.234 278.613 41.4975 228.438 21.1513 274.946C-22.5967 374.948 23.1394 471.195 32.0882 477.947C41.037 484.699 61.9159 501.947 151.399 431.947C151.399 431.947 147.612 393.565 148.416 368.948C149.212 344.594 155.376 306.946 155.376 306.946Z" fill="#9BD0E3" stroke="black" stroke-width="5"/>
<path d="M473.541 584.95C464.589 587.949 433.44 601.95 421.84 604.95L394.995 505.95L389.526 433.45C389.526 433.45 385.015 389.327 384.058 360.949C383.281 337.922 384.058 324.99 384.058 301.949V242.949C384.058 219.908 394.995 125.95 394.995 125.95C402.949 125.951 452.191 137.862 451.668 141.95C408.911 475.951 482.494 581.95 473.541 584.95Z" fill="#EFA1D0" stroke="black" stroke-width="5"/>
<path d="M339.313 617.949C329.37 619.949 297.554 617.949 285.623 617.949C285.623 617.949 265.676 553.32 258.251 513.948C250.887 474.909 249.078 421.269 247.358 370.251L247.314 368.948C245.58 317.542 245.163 296.979 247.314 250.948C249.456 205.106 257.784 129.949 257.784 129.949C266.265 126.949 315.974 115.861 315.451 119.949C272.694 453.95 349.256 615.949 339.313 617.949Z" fill="#EFA1D0" stroke="black" stroke-width="5"/>
<path d="M363.177 377.949C385.448 369.949 436.752 403.949 459.62 421.949C451.666 465.949 468.568 492.949 467.574 493.949C466.58 494.949 352.416 622.409 327.384 545.949C300.538 463.949 335.338 387.949 363.177 377.949Z" fill="#9BD0E3" stroke="black" stroke-width="5"/>
<path d="M457.63 436.95C438.076 438.283 385.645 435.55 332.353 413.95L336.33 406.95C336.33 406.95 372.265 419.056 395.986 423.95C419.764 428.855 457.63 431.95 457.63 431.95V436.95Z" fill="#F8C2E2"/>
<path d="M462.601 480.95C432.11 502.283 361.385 542.15 322.411 530.95L320.422 520.95C320.422 520.95 344.284 525.95 375.106 514.95C409.964 502.51 459.618 471.95 459.618 471.95L462.601 480.95Z" fill="#F8C2E2"/>
<path d="M457.63 457.95C423.162 467.616 347.267 482.95 319.428 466.95L320.422 457.95C320.422 457.95 343.29 465.95 385.049 461.95C413.584 459.216 457.63 450.95 457.63 450.95V457.95Z" fill="#F8C2E2"/>
<path d="M457.63 436.95C438.076 438.283 385.645 435.55 332.353 413.95L336.33 406.95C336.33 406.95 372.265 419.056 395.986 423.95C419.764 428.855 457.63 431.95 457.63 431.95V436.95Z" stroke="black" stroke-width="5"/>
<path d="M462.601 480.95C432.11 502.283 361.385 542.15 322.411 530.95L320.422 520.95C320.422 520.95 344.284 525.95 375.106 514.95C409.964 502.51 459.618 471.95 459.618 471.95L462.601 480.95Z" stroke="black" stroke-width="5"/>
<path d="M457.63 457.95C423.162 467.616 347.267 482.95 319.428 466.95L320.422 457.95C320.422 457.95 343.29 465.95 385.049 461.95C413.584 459.216 457.63 450.95 457.63 450.95V457.95Z" stroke="black" stroke-width="5"/>
<path d="M544.135 193.95C525.242 105.951 386.044 -43.05 193.161 15.9499C89.7564 47.5797 162.336 274.95 162.336 274.95C162.336 274.95 174.986 175.202 225.968 145.95C374.113 60.9502 544.135 193.95 544.135 193.95Z" fill="#9BD0E3"/>
<path d="M159.355 477.95C141.457 540.284 134.896 669.35 247.844 690.95C389.028 717.95 514.302 587.95 527.229 556.95C527.229 556.95 384.119 654.909 244.859 608.95C181.227 587.95 159.355 477.95 159.355 477.95Z" fill="#9BD0E3"/>
<path d="M544.135 193.95C525.242 105.951 386.044 -43.05 193.161 15.9499C89.7564 47.5797 162.336 274.95 162.336 274.95C162.336 274.95 174.986 175.202 225.968 145.95C374.113 60.9502 544.135 193.95 544.135 193.95Z" stroke="black" stroke-width="5"/>
<path d="M159.355 477.95C141.457 540.284 134.896 669.35 247.844 690.95C389.028 717.95 514.302 587.95 527.229 556.95C527.229 556.95 384.119 654.909 244.859 608.95C181.227 587.95 159.355 477.95 159.355 477.95Z" stroke="black" stroke-width="5"/>
<path d="M491.434 98.9497L478.509 86.9497C478.509 86.9497 489.598 115.071 493.423 133.95C495.692 145.152 497.4 162.95 497.4 162.95L505.354 166.95C505.354 166.95 503.056 146.098 500.383 132.95C497.646 119.493 491.434 98.9497 491.434 98.9497Z" stroke="black" stroke-width="5"/>
<path d="M491.434 98.9497L478.509 86.9497C478.509 86.9497 489.598 115.071 493.423 133.95C495.692 145.152 497.4 162.95 497.4 162.95L505.354 166.95C505.354 166.95 503.056 146.098 500.383 132.95C497.646 119.493 491.434 98.9497 491.434 98.9497Z" fill="#F8C2E2" stroke="black" stroke-width="5"/>
<path d="M420.842 130.95L429.791 132.95C429.791 132.95 427.817 102.598 423.825 82.9497C419.938 63.8188 409.905 34.9497 409.905 34.9497L398.969 29.9497C398.969 29.9497 410.571 60.5299 414.877 80.9497C418.933 100.188 420.842 130.95 420.842 130.95Z" fill="#F8C2E2" stroke="black" stroke-width="5"/>
<path d="M369.141 120.95L359.198 119.95C359.198 119.95 353.403 84.3652 345.278 62.9497C336.109 38.7802 313.462 4.94971 313.462 4.94971L324.399 5.94971C324.399 5.94971 345.309 39.4482 354.227 62.9497C362.52 84.8077 369.141 120.95 369.141 120.95Z" fill="#F8C2E2"/>
<path d="M231.933 6.94971L239.887 5.94971C239.887 5.94971 255.795 39.9497 265.738 62.9497C275.845 86.3305 286.617 121.95 286.617 121.95L278.663 123.95C278.663 123.95 266.834 87.6494 257.784 64.9497C248.598 41.9111 231.933 6.94971 231.933 6.94971Z" fill="#F8C2E2"/>
<path d="M369.141 120.95L359.198 119.95C359.198 119.95 353.403 84.3652 345.278 62.9497C336.109 38.7802 313.462 4.94971 313.462 4.94971L324.399 5.94971C324.399 5.94971 345.309 39.4482 354.227 62.9497C362.52 84.8077 369.141 120.95 369.141 120.95Z" stroke="black" stroke-width="5"/>
<path d="M231.933 6.94971L239.887 5.94971C239.887 5.94971 255.795 39.9497 265.738 62.9497C275.845 86.3305 286.617 121.95 286.617 121.95L278.663 123.95C278.663 123.95 266.834 87.6494 257.784 64.9497C248.598 41.9111 231.933 6.94971 231.933 6.94971Z" stroke="black" stroke-width="5"/>
<path d="M159.916 39.6294L164.887 34.6294C164.887 34.6294 185.117 55.708 204.094 81.9514C220.002 103.951 238.893 136.951 238.893 136.951L231.933 138.951C231.933 138.951 213.433 105.631 199.122 85.9514C184.652 66.0531 159.916 39.6294 159.916 39.6294Z" fill="#F8C2E2"/>
<path d="M137.478 128.951V119.951C137.478 119.951 153.589 132.109 165.317 143.951C178.252 157.011 193.157 181.951 193.157 181.951L188.185 189.951C188.185 189.951 173.113 164.614 160.346 150.951C150.165 140.056 137.478 128.951 137.478 128.951Z" fill="#F8C2E2"/>
<path d="M13.1958 295.951L16.1785 287.951C16.1785 287.951 58.3575 288.736 84.7824 293.951C112.628 299.447 154.381 315.951 154.381 315.951L152.392 324.951C152.392 324.951 112.071 307.659 84.7824 301.951C57.3169 296.207 13.1958 295.951 13.1958 295.951Z" fill="#F8C2E2"/>
<path d="M3.25317 357.951V350.951C3.25317 350.951 47.4716 354.362 75.8341 354.951C104.561 355.549 149.409 353.951 149.409 353.951L148.415 360.951C148.415 360.951 104.175 362.536 75.8341 361.951C47.4529 361.366 3.25317 357.951 3.25317 357.951Z" fill="#F8C2E2"/>
<path d="M148.415 391.951V383.951C148.415 383.951 106.356 395.787 78.8169 398.951C50.2593 402.233 5.24169 399.951 5.24169 399.951L6.23595 407.951C6.23595 407.951 51.7822 409.384 80.8054 406.951C116.599 403.951 148.415 391.951 148.415 391.951Z" fill="#F8C2E2"/>
<path d="M148.415 415.951V406.951C148.415 406.951 110.236 426.076 84.7824 435.951C60.037 445.552 20.1556 456.951 20.1556 456.951L24.1326 464.951C24.1326 464.951 63.4175 453.556 87.7652 443.951C112.027 434.38 148.415 415.951 148.415 415.951Z" fill="#F8C2E2"/>
<path d="M159.916 39.6294L164.887 34.6294C164.887 34.6294 185.117 55.708 204.094 81.9514C220.002 103.951 238.893 136.951 238.893 136.951L231.933 138.951C231.933 138.951 213.433 105.631 199.122 85.9514C184.652 66.0531 159.916 39.6294 159.916 39.6294Z" stroke="black" stroke-width="5"/>
<path d="M137.478 128.951V119.951C137.478 119.951 153.589 132.109 165.317 143.951C178.252 157.011 193.157 181.951 193.157 181.951L188.185 189.951C188.185 189.951 173.113 164.614 160.346 150.951C150.165 140.056 137.478 128.951 137.478 128.951Z" stroke="black" stroke-width="5"/>
<path d="M13.1958 295.951L16.1785 287.951C16.1785 287.951 58.3575 288.736 84.7824 293.951C112.628 299.447 154.381 315.951 154.381 315.951L152.392 324.951C152.392 324.951 112.071 307.659 84.7824 301.951C57.3169 296.207 13.1958 295.951 13.1958 295.951Z" stroke="black" stroke-width="5"/>
<path d="M3.25317 357.951V350.951C3.25317 350.951 47.4716 354.362 75.8341 354.951C104.561 355.549 149.409 353.951 149.409 353.951L148.415 360.951C148.415 360.951 104.175 362.536 75.8341 361.951C47.4529 361.366 3.25317 357.951 3.25317 357.951Z" stroke="black" stroke-width="5"/>
<path d="M148.415 391.951V383.951C148.415 383.951 106.356 395.787 78.8169 398.951C50.2593 402.233 5.24169 399.951 5.24169 399.951L6.23595 407.951C6.23595 407.951 51.7822 409.384 80.8054 406.951C116.599 403.951 148.415 391.951 148.415 391.951Z" stroke="black" stroke-width="5"/>
<path d="M148.415 415.951V406.951C148.415 406.951 110.236 426.076 84.7824 435.951C60.037 445.552 20.1556 456.951 20.1556 456.951L24.1326 464.951C24.1326 464.951 63.4175 453.556 87.7652 443.951C112.027 434.38 148.415 415.951 148.415 415.951Z" stroke="black" stroke-width="5"/>
<path d="M187.191 552.95L191.168 558.95C191.168 558.95 180.231 566.95 172.277 571.95C164.619 576.764 151.398 581.95 151.398 581.95L150.404 574.95C150.404 574.95 161.418 569.042 168.3 564.95C175.811 560.483 187.191 552.95 187.191 552.95Z" fill="#F8C2E2" stroke="black" stroke-width="5"/>
<path d="M232.927 602.95L226.962 598.95C226.962 598.95 214.996 617.219 206.082 627.95C197.103 638.759 181.226 653.95 181.226 653.95L186.197 658.95C186.197 658.95 202.727 643.192 212.048 631.95C220.951 621.211 232.927 602.95 232.927 602.95Z" fill="#F8C2E2"/>
<path d="M279.657 617.95L288.606 618.95C288.606 618.95 274.513 641.204 264.743 654.95C255.079 668.548 238.893 688.95 238.893 688.95L230.939 685.95C230.939 685.95 247.254 666.262 256.789 652.95C266.294 639.679 279.657 617.95 279.657 617.95Z" fill="#F8C2E2"/>
<path d="M326.387 619.95H336.33C336.33 619.95 326.349 643.258 319.428 657.95C312.735 672.154 301.531 693.95 301.531 693.95L292.583 694.95C292.583 694.95 304.699 672.078 311.474 656.95C317.84 642.733 326.387 619.95 326.387 619.95Z" fill="#F8C2E2"/>
<path d="M355.666 683.86L366.603 679.86C366.603 679.86 375.389 661.099 380.523 648.86C386.353 634.962 394.442 612.86 394.442 612.86L385.049 614.95C385.049 614.95 377.872 635.829 372.569 648.86C367.041 662.441 355.666 683.86 355.666 683.86Z" fill="#F8C2E2"/>
<path d="M424.819 651.95L432.773 646.95C432.773 646.95 435.778 631.955 436.75 622.95C437.718 613.986 438.739 599.95 438.739 599.95L431.779 602.95C431.779 602.95 431.051 616.981 429.79 625.95C428.36 636.122 424.819 651.95 424.819 651.95Z" fill="#F8C2E2"/>
<path d="M476.521 584.95L484.475 580.95C484.475 580.95 482.955 590.765 481.492 596.95C479.899 603.682 476.521 613.95 476.521 613.95L467.572 620.95C467.572 620.95 471.599 608.253 473.538 599.95C474.896 594.134 476.521 584.95 476.521 584.95Z" fill="#F8C2E2"/>
<path d="M555.067 536.95L561.033 531.95C561.033 531.95 563.842 547.132 565.01 556.95C566.166 566.675 566.869 572.156 566.998 581.95C567.153 593.69 566.912 600.365 565.01 611.95C563.245 622.697 558.05 638.95 558.05 638.95C558.05 638.95 555.253 640.631 553.079 639.95C551.225 639.369 550.096 636.95 550.096 636.95C550.096 636.95 556.291 622.047 558.05 611.95C559.794 601.941 559.06 596.111 559.044 585.95C559.029 576.179 558.854 570.687 558.05 560.95C557.272 551.537 555.067 536.95 555.067 536.95Z" fill="#F8C2E2"/>
<path d="M232.927 602.95L226.962 598.95C226.962 598.95 214.996 617.219 206.082 627.95C197.103 638.759 181.226 653.95 181.226 653.95L186.197 658.95C186.197 658.95 202.727 643.192 212.048 631.95C220.951 621.211 232.927 602.95 232.927 602.95Z" stroke="black" stroke-width="5"/>
<path d="M279.657 617.95L288.606 618.95C288.606 618.95 274.513 641.204 264.743 654.95C255.079 668.548 238.893 688.95 238.893 688.95L230.939 685.95C230.939 685.95 247.254 666.262 256.789 652.95C266.294 639.679 279.657 617.95 279.657 617.95Z" stroke="black" stroke-width="5"/>
<path d="M326.387 619.95H336.33C336.33 619.95 326.349 643.258 319.428 657.95C312.735 672.154 301.531 693.95 301.531 693.95L292.583 694.95C292.583 694.95 304.699 672.078 311.474 656.95C317.84 642.733 326.387 619.95 326.387 619.95Z" stroke="black" stroke-width="5"/>
<path d="M355.666 683.86L366.603 679.86C366.603 679.86 375.389 661.099 380.523 648.86C386.353 634.962 394.442 612.86 394.442 612.86L385.049 614.95C385.049 614.95 377.872 635.829 372.569 648.86C367.041 662.441 355.666 683.86 355.666 683.86Z" stroke="black" stroke-width="5"/>
<path d="M424.819 651.95L432.773 646.95C432.773 646.95 435.778 631.955 436.75 622.95C437.718 613.986 438.739 599.95 438.739 599.95L431.779 602.95C431.779 602.95 431.051 616.981 429.79 625.95C428.36 636.122 424.819 651.95 424.819 651.95Z" stroke="black" stroke-width="5"/>
<path d="M476.521 584.95L484.475 580.95C484.475 580.95 482.955 590.765 481.492 596.95C479.899 603.682 476.521 613.95 476.521 613.95L467.572 620.95C467.572 620.95 471.599 608.253 473.538 599.95C474.896 594.134 476.521 584.95 476.521 584.95Z" stroke="black" stroke-width="5"/>
<path d="M555.067 536.95L561.033 531.95C561.033 531.95 563.842 547.132 565.01 556.95C566.166 566.675 566.869 572.156 566.998 581.95C567.153 593.69 566.912 600.365 565.01 611.95C563.245 622.697 558.05 638.95 558.05 638.95C558.05 638.95 555.253 640.631 553.079 639.95C551.225 639.369 550.096 636.95 550.096 636.95C550.096 636.95 556.291 622.047 558.05 611.95C559.794 601.941 559.06 596.111 559.044 585.95C559.029 576.179 558.854 570.687 558.05 560.95C557.272 551.537 555.067 536.95 555.067 536.95Z" stroke="black" stroke-width="5"/>
<path d="M555.5 321.5C562.594 332.334 585.197 349.5 604.5 359.5C591.136 359.5 567.379 381.5 555.5 393.5" stroke="#111111" stroke-width="5"/>
</svg>
