<svg width="1192" height="1071" viewBox="0 0 1192 1071" fill="none" xmlns="http://www.w3.org/2000/svg">
<path d="M101 989.5H1101.5V901.5H101V989.5Z" fill="#9D4E25"/>
<path d="M1101.5 668H708C710.604 689.771 707.609 727.883 678.386 753.405C676.574 754.988 674.661 756.521 672.643 758H1101.5V668Z" fill="#9D4E25"/>
<path d="M474.5 668H101V758H518C485.5 731 474.5 713.5 474.5 668Z" fill="#9D4E25"/>
<path fill-rule="evenodd" clip-rule="evenodd" d="M4 601.5V1067H1186V601.5L1101.5 552H123.5L4 601.5ZM1101.5 989.5H101V901.5V758V668H474.5C474.5 713.5 485.5 731 518 758C543.5 774.5 556.5 779.5 593 779.5C629.652 779.5 655.128 770.832 672.643 758C674.661 756.521 676.574 754.988 678.386 753.405C707.609 727.883 710.604 689.771 708 668H1101.5V758V901.5V989.5ZM138.5 568L101 586H1101.5L1081.5 568H138.5Z" fill="#F7C143"/>
<path fill-rule="evenodd" clip-rule="evenodd" d="M101 989.5H1101.5V901.5H101V989.5ZM1101.5 758V668H708C710.604 689.771 707.609 727.883 678.386 753.405C676.574 754.988 674.661 756.521 672.643 758H1101.5ZM101 668V758H518C485.5 731 474.5 713.5 474.5 668H101Z" fill="#9D4E25"/>
<path d="M593 779.5C556.5 779.5 543.5 774.5 518 758H101V901.5H1101.5V758H672.643C655.128 770.832 629.652 779.5 593 779.5Z" fill="#9D4E25"/>
<path d="M101 586L138.5 568H1081.5L1101.5 586H101Z" fill="#64361E"/>
<path d="M4 601.5V1067H1186V601.5M4 601.5H508H1186M4 601.5L123.5 552H1101.5L1186 601.5M593 779.5C556.5 779.5 543.5 774.5 518 758M593 779.5C629.652 779.5 655.128 770.832 672.643 758M593 779.5C633.875 779.5 660.852 768.719 678.386 753.405M101 758V668H474.5C474.5 713.5 485.5 731 518 758M101 758H518M101 758V901.5M672.643 758H1101.5M672.643 758C674.661 756.521 676.574 754.988 678.386 753.405M1101.5 758V668H708C710.604 689.771 707.609 727.883 678.386 753.405M1101.5 758V901.5M101 901.5V989.5H1101.5V901.5M101 901.5H1101.5M101 586L138.5 568H1081.5L1101.5 586H101Z" stroke="#111111" stroke-width="8"/>
<path d="M1018.56 53.8381L172.563 51.0622C143.515 80.1036 113.309 113.289 91.8308 143.373H1075.5C1062.39 115.899 1043.91 85.0023 1018.56 53.8381Z" fill="#9D4E25"/>
<path d="M71.7637 226.144H1102.5C1100.43 208.92 1092.5 179.03 1075.5 143.373H91.8308C65.829 179.793 58.3342 208.073 71.7637 226.144Z" fill="#9D4E25"/>
<path d="M976.492 8.49924C849.495 5.19895 464.156 4.14069 222.376 4.01349C207.723 17.0297 190.361 33.2681 172.563 51.0622L1018.56 53.8381C1006.22 38.6671 992.253 23.4327 976.492 8.49924Z" fill="#9D4E25"/>
<path d="M58.3342 303.682L139.5 518.22H1075.5L1132.93 303.682H58.3342Z" fill="#64361E"/>
<path d="M1187.5 268.343C1171.92 194.278 1132.93 95.8091 1022.72 8.49924L1008.65 8.4991C997.929 8.49895 986.216 8.49879 976.492 8.49924C992.253 23.4327 1006.22 38.6671 1018.56 53.8381C1043.91 85.0023 1062.39 115.899 1075.5 143.373C1092.5 179.03 1100.43 208.92 1102.5 226.144H71.7637C58.3342 208.073 65.829 179.793 91.8308 143.373C113.309 113.289 143.515 80.1036 172.563 51.0622C190.361 33.2681 207.723 17.0297 222.376 4.01349C204.978 4.00433 188.324 4 172.563 4C120.739 51.0622 21.4787 127.205 9 268.343H58.3342H1132.93H1187.5Z" fill="#F7C143"/>
<path fill-rule="evenodd" clip-rule="evenodd" d="M9 268.343L120 552H1102.5L1187.5 268.343H1132.93H58.3342H9ZM139.5 518.22L58.3342 303.682H1132.93L1075.5 518.22H139.5Z" fill="#F7C143"/>
<path d="M9 268.343L120 552H1102.5L1187.5 268.343M9 268.343C21.4787 127.205 120.739 51.0622 172.563 4C188.324 4 204.978 4.00433 222.376 4.01349M9 268.343H58.3342H1132.93H1187.5M1187.5 268.343C1171.92 194.278 1132.93 95.8091 1022.72 8.49924M1022.72 8.49924L1008.65 8.4991M1022.72 8.49924C1018.45 8.49924 1013.66 8.49917 1008.65 8.4991M222.376 4.01349C464.156 4.14069 849.495 5.19895 976.492 8.49924M222.376 4.01349C207.723 17.0297 190.361 33.2681 172.563 51.0622M976.492 8.49924C992.253 23.4327 1006.22 38.6671 1018.56 53.8381M976.492 8.49924C986.216 8.49879 997.929 8.49895 1008.65 8.4991M172.563 51.0622L1018.56 53.8381M172.563 51.0622C143.515 80.1036 113.309 113.289 91.8308 143.373M1018.56 53.8381C1043.91 85.0023 1062.39 115.899 1075.5 143.373M91.8308 143.373C65.829 179.793 58.3342 208.073 71.7637 226.144H1102.5C1100.43 208.92 1092.5 179.03 1075.5 143.373M91.8308 143.373H1075.5M58.3342 303.682L139.5 518.22H1075.5L1132.93 303.682H58.3342Z" stroke="#111111" stroke-width="8"/>
<path d="M610.396 759.289L594.656 774.986L578.96 759.247L594.699 743.551L610.396 759.289ZM654.234 741.008L638.777 756.531L594.986 712.928L550.833 756.893L535.376 741.37L579.464 697.471L579.394 697.401L594.85 681.878L654.234 741.008ZM579.102 666.565L563.578 682.021L563.509 681.952L519.609 726.039L504.087 710.583L548.053 666.429L504.448 622.638L519.972 607.181L579.102 666.565ZM685.088 622.456L641.483 666.248L685.449 710.402L669.926 725.858L626.026 681.771L625.958 681.84L610.435 666.384L669.565 606.999L685.088 622.456ZM517.434 666.297L501.905 682.202L486 666.675L501.527 650.77L517.434 666.297ZM703 665.936L687.472 681.841L671.566 666.313L687.094 650.407L703 665.936ZM610.436 243.739L594.696 259.436L579 243.696L594.739 228L610.436 243.739Z" fill="#121212"/>
<path d="M584.002 600.122L595.155 611.771L606.032 600.555L637.033 600.63L594.994 642.303L580.065 627.336L580.146 627.252L553 600L584.002 600.122Z" fill="#0D0D0D"/>
<path d="M617 249L632.5 265H601L617 249Z" fill="#0F0F0F"/>
<path d="M573 249L588.5 265H557L573 249Z" fill="#131212"/>
</svg>
