<svg width="737" height="306" viewBox="0 0 737 306" fill="none" xmlns="http://www.w3.org/2000/svg">
<path fill-rule="evenodd" clip-rule="evenodd" d="M732.719 290.426C740.022 237.698 700.419 122.826 649.219 86.4258C604.536 54.6587 464.338 25.9139 372.36 12.2388C332.844 4.11174 302.591 0.180529 291.719 3.92577C203.722 9.95659 12.3263 162.701 8.21889 170.927C-4.77882 196.957 3.22026 271.957 44.2189 290.426C44.2189 290.426 255.335 301.513 390.721 301.457C419.723 301.444 452.128 301.767 485.117 302.096C604.132 303.282 730.764 304.543 732.719 290.426ZM291.719 3.92577C261.886 10.6027 202.721 43.1566 204.721 119.957C206.886 203.096 475 170.927 564.572 162.019C576.939 160.79 585.279 155.75 595.5 153.687C605.151 151.739 668.217 107.895 649.219 86.4258C585.221 46.5001 457 26.8473 372.36 12.2388C302 -0.999921 301.847 3.23168 291.719 3.92577Z" fill="#8A97C4"/>
<path d="M291.719 3.92577C261.886 10.6027 202.721 43.1566 204.721 119.957C206.886 203.096 475 170.927 564.572 162.019C576.939 160.79 585.279 155.75 595.5 153.687C605.151 151.739 668.217 107.895 649.219 86.4258C585.221 46.5001 457 26.8473 372.36 12.2388C302 -0.999921 301.847 3.23168 291.719 3.92577Z" fill="#A5D2F0"/>
<path d="M649.219 86.4258C700.419 122.826 740.022 237.698 732.719 290.426C730.764 304.543 604.132 303.282 485.117 302.096C452.128 301.767 419.723 301.444 390.721 301.457C255.335 301.513 44.2189 290.426 44.2189 290.426C3.22026 271.957 -4.77882 196.957 8.21889 170.927C12.3263 162.701 203.722 9.95659 291.719 3.92577M649.219 86.4258C668.217 107.895 605.151 151.739 595.5 153.687C585.279 155.75 576.939 160.79 564.572 162.019C475 170.927 206.886 203.096 204.721 119.957C202.721 43.1566 261.886 10.6027 291.719 3.92577M649.219 86.4258C604.536 54.6587 464.338 25.9139 372.36 12.2388M649.219 86.4258C585.221 46.5001 457 26.8473 372.36 12.2388M291.719 3.92577C302.591 0.180529 332.844 4.11174 372.36 12.2388M291.719 3.92577C301.847 3.23168 302 -0.999921 372.36 12.2388" stroke="#435181" stroke-width="5"/>
<path d="M267.001 118.692C253.501 100.188 262 78.1871 290.501 83.6918C398.5 137.192 414.5 114.687 440.001 137.192C447.589 143.888 407 144.687 348.501 137.192C300.884 131.091 278 130.187 267.001 118.692Z" fill="#C6ECFF" stroke="#435181" stroke-width="5"/>
</svg>
