<svg width="1184" height="746" viewBox="0 0 1184 746" fill="none" xmlns="http://www.w3.org/2000/svg">
<path d="M589.886 10.9077C428.264 11.7725 282.202 47.2144 176.714 103.743C71.1593 160.308 6.59202 237.758 7.04567 322.531C7.63881 433.371 110.295 530.452 278.339 584.015L279.052 584.241L279.3 584.946C313.738 682.941 369.368 722.716 395.758 733.07C391.103 728.157 387.356 721.706 384.372 714.349C380.233 704.141 377.503 692.05 375.872 679.552C372.611 654.564 373.712 627.706 376.909 610.507L377.186 609.02L378.671 609.309C443.048 621.828 520.321 628.289 593.188 627.899C700.383 627.325 820.896 624.957 906.914 598.015L981.682 570.26C1113.31 512.9 1176.55 412.77 1176.03 316.275C1175.58 231.503 1110.18 154.748 1004.03 99.3158C897.942 43.9193 751.509 10.0428 589.886 10.9077Z" fill="white" stroke="black" stroke-width="3"/>
<path d="M224.218 372.282L199.978 346.442V372.282H194.378V316.362H199.978V342.522L224.218 316.362H231.338L205.178 344.282L231.578 372.282H224.218ZM245.447 313.082V372.282H239.847V313.082H245.447ZM260.928 320.362C259.808 320.362 258.848 319.962 258.048 319.162C257.248 318.362 256.848 317.375 256.848 316.202C256.848 315.028 257.248 314.068 258.048 313.322C258.848 312.522 259.808 312.122 260.928 312.122C262.048 312.122 263.008 312.522 263.808 313.322C264.608 314.068 265.008 315.028 265.008 316.202C265.008 317.375 264.608 318.362 263.808 319.162C263.008 319.962 262.048 320.362 260.928 320.362ZM263.728 328.602V372.282H258.128V328.602H263.728ZM300.009 372.282L282.009 352.682V372.282H276.409V313.082H282.009V348.122L299.609 328.602H307.449L286.729 350.362L307.609 372.282H300.009ZM342.32 338.202C343.706 335.268 345.893 332.842 348.88 330.922C351.92 328.948 355.52 327.962 359.68 327.962C363.627 327.962 367.173 328.895 370.32 330.762C373.52 332.575 376 335.188 377.76 338.602C379.573 341.962 380.48 345.882 380.48 350.362C380.48 354.842 379.573 358.788 377.76 362.202C376 365.615 373.52 368.255 370.32 370.122C367.173 371.988 363.627 372.922 359.68 372.922C355.573 372.922 352 371.962 348.96 370.042C345.92 368.068 343.706 365.615 342.32 362.682V392.922H336.8V328.602H342.32V338.202ZM374.8 350.362C374.8 346.735 374.08 343.615 372.64 341.002C371.253 338.335 369.333 336.308 366.88 334.922C364.427 333.535 361.653 332.842 358.56 332.842C355.573 332.842 352.826 333.562 350.32 335.002C347.866 336.442 345.92 338.495 344.48 341.162C343.04 343.828 342.32 346.922 342.32 350.442C342.32 353.962 343.04 357.055 344.48 359.722C345.92 362.388 347.866 364.442 350.32 365.882C352.826 367.322 355.573 368.042 358.56 368.042C361.653 368.042 364.427 367.348 366.88 365.962C369.333 364.522 371.253 362.468 372.64 359.802C374.08 357.082 374.8 353.935 374.8 350.362ZM388.224 350.362C388.224 345.882 389.104 341.962 390.864 338.602C392.678 335.188 395.158 332.575 398.304 330.762C401.504 328.895 405.104 327.962 409.104 327.962C413.264 327.962 416.838 328.922 419.824 330.842C422.864 332.762 425.051 335.215 426.384 338.202V328.602H431.984V372.282H426.384V362.602C424.998 365.588 422.784 368.068 419.744 370.042C416.758 371.962 413.184 372.922 409.024 372.922C405.078 372.922 401.504 371.988 398.304 370.122C395.158 368.255 392.678 365.615 390.864 362.202C389.104 358.788 388.224 354.842 388.224 350.362ZM426.384 350.442C426.384 346.922 425.664 343.828 424.224 341.162C422.784 338.495 420.811 336.442 418.304 335.002C415.851 333.562 413.131 332.842 410.144 332.842C407.051 332.842 404.278 333.535 401.824 334.922C399.371 336.308 397.424 338.335 395.984 341.002C394.598 343.615 393.904 346.735 393.904 350.362C393.904 353.935 394.598 357.082 395.984 359.802C397.424 362.468 399.371 364.522 401.824 365.962C404.278 367.348 407.051 368.042 410.144 368.042C413.131 368.042 415.851 367.322 418.304 365.882C420.811 364.442 422.784 362.388 424.224 359.722C425.664 357.055 426.384 353.962 426.384 350.442ZM419.664 315.482C419.664 317.882 418.891 319.828 417.344 321.322C415.798 322.762 413.851 323.482 411.504 323.482C409.211 323.482 407.264 322.762 405.664 321.322C404.118 319.828 403.344 317.882 403.344 315.482C403.344 313.082 404.118 311.162 405.664 309.722C407.264 308.228 409.211 307.482 411.504 307.482C413.851 307.482 415.798 308.228 417.344 309.722C418.891 311.162 419.664 313.082 419.664 315.482ZM416.224 315.482C416.224 313.988 415.771 312.815 414.864 311.962C413.958 311.055 412.838 310.602 411.504 310.602C410.171 310.602 409.051 311.055 408.144 311.962C407.291 312.815 406.864 313.988 406.864 315.482C406.864 316.922 407.291 318.095 408.144 319.002C409.051 319.908 410.171 320.362 411.504 320.362C412.838 320.362 413.958 319.908 414.864 319.002C415.771 318.095 416.224 316.922 416.224 315.482ZM483.922 333.322H473.762V372.282H468.162V333.322H462.082V328.602H468.162V325.562C468.162 320.815 469.362 317.322 471.762 315.082C474.215 312.842 478.162 311.722 483.602 311.722V316.522C479.975 316.522 477.415 317.215 475.922 318.602C474.482 319.988 473.762 322.308 473.762 325.562V328.602H483.922V333.322ZM495.537 320.362C494.417 320.362 493.457 319.962 492.657 319.162C491.857 318.362 491.457 317.375 491.457 316.202C491.457 315.028 491.857 314.068 492.657 313.322C493.457 312.522 494.417 312.122 495.537 312.122C496.657 312.122 497.617 312.522 498.417 313.322C499.217 314.068 499.617 315.028 499.617 316.202C499.617 317.375 499.217 318.362 498.417 319.162C497.617 319.962 496.657 320.362 495.537 320.362ZM498.337 328.602V372.282H492.737V328.602H498.337ZM526.059 372.922C521.045 372.922 516.939 371.775 513.739 369.482C510.592 367.135 508.832 363.962 508.459 359.962H514.219C514.485 362.415 515.632 364.415 517.659 365.962C519.739 367.455 522.512 368.202 525.979 368.202C529.019 368.202 531.392 367.482 533.099 366.042C534.859 364.602 535.739 362.815 535.739 360.682C535.739 359.188 535.259 357.962 534.299 357.002C533.339 356.042 532.112 355.295 530.619 354.762C529.179 354.175 527.205 353.562 524.699 352.922C521.445 352.068 518.805 351.215 516.779 350.362C514.752 349.508 513.019 348.255 511.579 346.602C510.192 344.895 509.499 342.628 509.499 339.802C509.499 337.668 510.139 335.695 511.419 333.882C512.699 332.068 514.512 330.628 516.859 329.562C519.205 328.495 521.872 327.962 524.859 327.962C529.552 327.962 533.339 329.162 536.219 331.562C539.099 333.908 540.645 337.162 540.859 341.322H535.259C535.099 338.762 534.085 336.708 532.219 335.162C530.405 333.562 527.899 332.762 524.699 332.762C521.872 332.762 519.579 333.428 517.819 334.762C516.059 336.095 515.179 337.748 515.179 339.722C515.179 341.428 515.685 342.842 516.699 343.962C517.765 345.028 519.072 345.882 520.619 346.522C522.165 347.108 524.245 347.775 526.859 348.522C530.005 349.375 532.512 350.202 534.379 351.002C536.245 351.802 537.845 352.975 539.179 354.522C540.512 356.068 541.205 358.122 541.259 360.682C541.259 363.028 540.619 365.135 539.339 367.002C538.059 368.815 536.272 370.255 533.979 371.322C531.685 372.388 529.045 372.922 526.059 372.922ZM575.4 372.282L557.4 352.682V372.282H551.8V313.082H557.4V348.122L575 328.602H582.84L562.12 350.362L583 372.282H575.4ZM629.757 348.202C629.757 350.122 629.704 351.588 629.597 352.602H593.357C593.517 355.908 594.317 358.735 595.757 361.082C597.197 363.428 599.091 365.215 601.437 366.442C603.784 367.615 606.344 368.202 609.117 368.202C612.744 368.202 615.784 367.322 618.237 365.562C620.744 363.802 622.397 361.428 623.197 358.442H629.117C628.051 362.708 625.757 366.202 622.237 368.922C618.771 371.588 614.397 372.922 609.117 372.922C605.011 372.922 601.331 372.015 598.077 370.202C594.824 368.335 592.264 365.722 590.397 362.362C588.584 358.948 587.677 354.975 587.677 350.442C587.677 345.908 588.584 341.935 590.397 338.522C592.211 335.108 594.744 332.495 597.997 330.682C601.251 328.868 604.957 327.962 609.117 327.962C613.277 327.962 616.904 328.868 619.997 330.682C623.144 332.495 625.544 334.948 627.197 338.042C628.904 341.082 629.757 344.468 629.757 348.202ZM624.077 348.042C624.131 344.788 623.464 342.015 622.077 339.722C620.744 337.428 618.904 335.695 616.557 334.522C614.211 333.348 611.651 332.762 608.877 332.762C604.717 332.762 601.171 334.095 598.237 336.762C595.304 339.428 593.677 343.188 593.357 348.042H624.077ZM660.483 327.802C665.71 327.802 669.976 329.428 673.283 332.682C676.59 335.882 678.243 340.548 678.243 346.682V372.282H672.723V347.322C672.723 342.575 671.523 338.948 669.123 336.442C666.776 333.935 663.55 332.682 659.443 332.682C655.23 332.682 651.87 334.015 649.363 336.682C646.856 339.348 645.603 343.268 645.603 348.442V372.282H640.003V328.602H645.603V336.042C646.99 333.375 648.99 331.348 651.603 329.962C654.216 328.522 657.176 327.802 660.483 327.802ZM730.148 348.202C730.148 350.122 730.095 351.588 729.988 352.602H693.748C693.908 355.908 694.708 358.735 696.148 361.082C697.588 363.428 699.481 365.215 701.828 366.442C704.175 367.615 706.735 368.202 709.508 368.202C713.135 368.202 716.175 367.322 718.628 365.562C721.135 363.802 722.788 361.428 723.588 358.442H729.508C728.441 362.708 726.148 366.202 722.628 368.922C719.161 371.588 714.788 372.922 709.508 372.922C705.401 372.922 701.721 372.015 698.468 370.202C695.215 368.335 692.655 365.722 690.788 362.362C688.975 358.948 688.068 354.975 688.068 350.442C688.068 345.908 688.975 341.935 690.788 338.522C692.601 335.108 695.135 332.495 698.388 330.682C701.641 328.868 705.348 327.962 709.508 327.962C713.668 327.962 717.295 328.868 720.388 330.682C723.535 332.495 725.935 334.948 727.588 338.042C729.295 341.082 730.148 344.468 730.148 348.202ZM724.468 348.042C724.521 344.788 723.855 342.015 722.468 339.722C721.135 337.428 719.295 335.695 716.948 334.522C714.601 333.348 712.041 332.762 709.268 332.762C705.108 332.762 701.561 334.095 698.628 336.762C695.695 339.428 694.068 343.188 693.748 348.042H724.468ZM781.467 372.922C777.36 372.922 773.653 372.015 770.347 370.202C767.093 368.335 764.507 365.722 762.587 362.362C760.72 358.948 759.787 354.975 759.787 350.442C759.787 345.908 760.747 341.962 762.667 338.602C764.587 335.188 767.2 332.575 770.507 330.762C773.813 328.895 777.52 327.962 781.627 327.962C785.733 327.962 789.44 328.895 792.747 330.762C796.107 332.575 798.72 335.188 800.587 338.602C802.507 341.962 803.467 345.908 803.467 350.442C803.467 354.922 802.507 358.868 800.587 362.282C798.667 365.695 796.027 368.335 792.667 370.202C789.307 372.015 785.573 372.922 781.467 372.922ZM781.467 368.042C784.347 368.042 787.013 367.402 789.467 366.122C791.92 364.788 793.893 362.815 795.387 360.202C796.933 357.535 797.707 354.282 797.707 350.442C797.707 346.602 796.96 343.375 795.467 340.762C793.973 338.095 792 336.122 789.547 334.842C787.093 333.508 784.427 332.842 781.547 332.842C778.667 332.842 776 333.508 773.547 334.842C771.093 336.122 769.12 338.095 767.627 340.762C766.187 343.375 765.467 346.602 765.467 350.442C765.467 354.282 766.187 357.535 767.627 360.202C769.12 362.815 771.067 364.788 773.467 366.122C775.92 367.402 778.587 368.042 781.467 368.042ZM831.995 327.962C836.101 327.962 839.675 328.922 842.715 330.842C845.755 332.762 847.941 335.188 849.275 338.122V328.602H854.875V373.402C854.875 377.402 853.995 380.948 852.235 384.042C850.528 387.135 848.128 389.508 845.035 391.162C841.942 392.868 838.421 393.722 834.475 393.722C828.875 393.722 824.208 392.388 820.475 389.722C816.795 387.055 814.501 383.428 813.595 378.842H819.115C820.075 381.882 821.888 384.308 824.555 386.122C827.275 387.935 830.581 388.842 834.475 388.842C837.301 388.842 839.835 388.228 842.075 387.002C844.315 385.828 846.075 384.068 847.355 381.722C848.635 379.375 849.275 376.602 849.275 373.402V362.602C847.888 365.588 845.675 368.068 842.635 370.042C839.648 371.962 836.101 372.922 831.995 372.922C827.995 372.922 824.395 371.988 821.195 370.122C818.048 368.255 815.568 365.615 813.755 362.202C811.995 358.788 811.115 354.842 811.115 350.362C811.115 345.882 811.995 341.962 813.755 338.602C815.568 335.188 818.048 332.575 821.195 330.762C824.395 328.895 827.995 327.962 831.995 327.962ZM849.275 350.442C849.275 346.922 848.555 343.828 847.115 341.162C845.675 338.495 843.701 336.442 841.195 335.002C838.741 333.562 836.021 332.842 833.035 332.842C829.941 332.842 827.168 333.535 824.715 334.922C822.261 336.308 820.315 338.335 818.875 341.002C817.488 343.615 816.795 346.735 816.795 350.362C816.795 353.935 817.488 357.082 818.875 359.802C820.315 362.468 822.261 364.522 824.715 365.962C827.168 367.348 829.941 368.042 833.035 368.042C836.021 368.042 838.741 367.322 841.195 365.882C843.701 364.442 845.675 362.388 847.115 359.722C848.555 357.055 849.275 353.962 849.275 350.442ZM895.212 313.082V372.282H889.612V313.082H895.212ZM943.894 328.602L917.974 392.842H912.134L920.614 372.042L902.694 328.602H908.854L923.734 365.882L938.134 328.602H943.894ZM958.767 333.322V360.442C958.767 363.108 959.274 364.948 960.287 365.962C961.301 366.975 963.087 367.482 965.647 367.482H970.767V372.282H964.767C960.821 372.282 957.887 371.375 955.967 369.562C954.047 367.695 953.087 364.655 953.087 360.442V333.322H947.007V328.602H953.087V317.642H958.767V328.602H970.767V333.322H958.767ZM987.523 316.362L986.803 357.482H982.083L981.443 316.362H987.523ZM984.723 372.682C983.55 372.682 982.563 372.282 981.763 371.482C981.016 370.682 980.643 369.695 980.643 368.522C980.643 367.348 981.016 366.388 981.763 365.642C982.563 364.842 983.55 364.442 984.723 364.442C985.843 364.442 986.776 364.842 987.523 365.642C988.323 366.388 988.723 367.348 988.723 368.522C988.723 369.695 988.323 370.682 987.523 371.482C986.776 372.282 985.843 372.682 984.723 372.682Z" fill="black"/>
</svg>
