<svg width="1501" height="959" viewBox="0 0 1501 959" fill="none" xmlns="http://www.w3.org/2000/svg">
<path d="M761.392 6.49938C965.305 7.57763 1149.56 51.7631 1282.59 122.209C1415.75 192.718 1496.98 289.146 1496.41 394.507C1495.85 497.469 1417.28 591.073 1288.71 659.774C1160.25 728.419 982.458 771.833 784.948 774.599L783.126 774.624L782.592 776.366C777.624 792.587 761.759 825.417 743.795 860.087C727.963 890.644 710.608 922.427 697.938 945.089C697.421 934.677 695.164 923.148 691.744 911.141C687.194 895.168 680.545 878.194 673.021 861.626C657.976 828.493 639.355 796.812 626.781 777.736L626.023 776.586L624.646 776.612C519.234 778.615 370.559 743.493 276.026 710.501L180.284 665.066C109.621 628.754 65.8721 587.513 39.8227 540.466C13.7589 493.393 5.26626 440.244 5.59335 379.845C6.16367 274.556 92.4869 180.696 230.605 113.283C368.568 45.9456 557.463 5.4211 761.392 6.49938Z" fill="white" stroke="black" stroke-width="5"/>
<path d="M679.876 335H665.374V281.606H610.955V335H596.453V225.942H610.955V268.716H665.374V225.942H679.876V335ZM784.129 295.522H723.851C723.851 300.552 724.607 304.946 726.121 308.706C727.635 312.417 729.71 315.469 732.347 317.861C734.886 320.205 737.889 321.963 741.355 323.135C744.871 324.307 748.729 324.893 752.928 324.893C758.494 324.893 764.085 323.794 769.7 321.597C775.364 319.351 779.393 317.153 781.785 315.005H782.518V330.02C777.879 331.973 773.143 333.608 768.309 334.927C763.475 336.245 758.396 336.904 753.074 336.904C739.5 336.904 728.904 333.242 721.287 325.918C713.67 318.545 709.861 308.096 709.861 294.57C709.861 281.191 713.499 270.571 720.774 262.71C728.099 254.849 737.718 250.918 749.632 250.918C760.667 250.918 769.163 254.141 775.12 260.586C781.126 267.031 784.129 276.187 784.129 288.052V295.522ZM770.726 284.976C770.677 277.749 768.846 272.158 765.232 268.203C761.668 264.248 756.224 262.271 748.899 262.271C741.526 262.271 735.643 264.443 731.248 268.789C726.902 273.135 724.437 278.53 723.851 284.976H770.726ZM837.991 239.492H822.464V225.21H837.991V239.492ZM837.112 336.978C837.112 346.548 834.671 353.774 829.788 358.657C824.905 363.54 818.362 365.981 810.159 365.981C808.206 365.981 805.618 365.786 802.396 365.396C799.222 365.005 796.561 364.517 794.412 363.931V350.82H795.145C796.512 351.357 798.343 351.968 800.638 352.651C802.981 353.335 805.252 353.677 807.449 353.677C810.965 353.677 813.797 353.188 815.945 352.212C818.094 351.235 819.705 349.771 820.779 347.817C821.854 345.864 822.537 343.496 822.83 340.713C823.172 337.979 823.343 334.634 823.343 330.679V264.761H806.277V253.188H837.112V336.978ZM895.882 225.942L893.978 304.971H881.526L879.476 225.942H895.882ZM895.149 335H880.208V319.546H895.149V335ZM332.898 534.268C330.311 534.951 327.479 535.513 324.402 535.952C321.375 536.392 318.665 536.611 316.272 536.611C307.923 536.611 301.575 534.365 297.229 529.873C292.884 525.381 290.711 518.179 290.711 508.267V464.761H281.409V453.188H290.711V429.678H304.48V453.188H332.898V464.761H304.48V502.041C304.48 506.338 304.578 509.707 304.773 512.148C304.969 514.541 305.652 516.787 306.824 518.887C307.898 520.84 309.363 522.28 311.219 523.208C313.123 524.087 316.004 524.526 319.861 524.526C322.107 524.526 324.451 524.209 326.893 523.574C329.334 522.891 331.092 522.329 332.166 521.89H332.898V534.268ZM408.147 468.203H407.415C405.364 467.715 403.362 467.373 401.409 467.178C399.505 466.934 397.234 466.812 394.598 466.812C390.35 466.812 386.248 467.764 382.293 469.668C378.338 471.523 374.529 473.94 370.867 476.919V535H357.098V453.188H370.867V465.273C376.336 460.879 381.146 457.778 385.296 455.972C389.495 454.116 393.768 453.188 398.113 453.188C400.506 453.188 402.239 453.262 403.313 453.408C404.388 453.506 405.999 453.726 408.147 454.067V468.203ZM499.363 453.188L451.609 565.176H436.888L452.122 531.045L419.529 453.188H434.471L459.593 513.833L484.935 453.188H499.363ZM599.148 535H580.984L548.172 499.185L539.236 507.681V535H525.467V421.035H539.236V494.131L579.007 453.188H596.365L558.353 490.981L599.148 535ZM753.382 493.105C753.382 499.746 752.43 505.825 750.525 511.343C748.621 516.812 745.936 521.45 742.469 525.259C739.246 528.872 735.438 531.68 731.043 533.682C726.697 535.635 722.083 536.611 717.2 536.611C712.952 536.611 709.095 536.147 705.628 535.22C702.21 534.292 698.719 532.852 695.154 530.898V565.176H681.385V453.188H695.154V461.758C698.816 458.682 702.918 456.118 707.459 454.067C712.049 451.968 716.932 450.918 722.107 450.918C731.971 450.918 739.637 454.653 745.105 462.124C750.623 469.546 753.382 479.873 753.382 493.105ZM739.173 493.472C739.173 483.608 737.488 476.235 734.119 471.353C730.75 466.47 725.574 464.028 718.592 464.028C714.637 464.028 710.657 464.883 706.653 466.592C702.649 468.301 698.816 470.547 695.154 473.33V519.692C699.061 521.45 702.405 522.646 705.188 523.281C708.021 523.916 711.219 524.233 714.783 524.233C722.449 524.233 728.431 521.646 732.728 516.47C737.024 511.294 739.173 503.628 739.173 493.472ZM845.916 535H832.22V526.284C830.999 527.114 829.339 528.286 827.239 529.8C825.188 531.265 823.187 532.437 821.233 533.315C818.938 534.438 816.302 535.366 813.323 536.099C810.345 536.88 806.854 537.271 802.85 537.271C795.477 537.271 789.227 534.829 784.1 529.946C778.973 525.063 776.409 518.838 776.409 511.27C776.409 505.068 777.728 500.063 780.364 496.255C783.05 492.397 786.858 489.37 791.79 487.173C796.771 484.976 802.752 483.486 809.734 482.705C816.717 481.924 824.212 481.338 832.22 480.947V478.823C832.22 475.698 831.658 473.11 830.535 471.06C829.461 469.009 827.898 467.397 825.848 466.226C823.895 465.103 821.551 464.346 818.816 463.955C816.082 463.564 813.226 463.369 810.247 463.369C806.634 463.369 802.605 463.857 798.162 464.834C793.719 465.762 789.129 467.129 784.393 468.936H783.66V454.946C786.346 454.214 790.228 453.408 795.306 452.529C800.384 451.65 805.389 451.211 810.32 451.211C816.082 451.211 821.087 451.699 825.335 452.676C829.632 453.604 833.343 455.215 836.468 457.51C839.544 459.756 841.888 462.661 843.499 466.226C845.11 469.79 845.916 474.209 845.916 479.482V535ZM832.22 514.858V492.08C828.021 492.324 823.064 492.69 817.352 493.179C811.688 493.667 807.195 494.375 803.875 495.303C799.92 496.426 796.722 498.184 794.28 500.576C791.839 502.92 790.618 506.167 790.618 510.317C790.618 515.005 792.034 518.545 794.866 520.938C797.698 523.281 802.02 524.453 807.83 524.453C812.664 524.453 817.083 523.525 821.087 521.67C825.091 519.766 828.802 517.495 832.22 514.858ZM838.812 415.615C838.812 422.598 836.321 428.506 831.341 433.34C826.36 438.174 820.306 440.591 813.177 440.591C806.146 440.591 800.115 438.198 795.086 433.413C790.057 428.579 787.542 422.646 787.542 415.615C787.542 408.633 790.032 402.749 795.013 397.964C799.993 393.179 806.048 390.786 813.177 390.786C820.354 390.786 826.409 393.179 831.341 397.964C836.321 402.749 838.812 408.633 838.812 415.615ZM828.191 415.615C828.191 411.416 826.751 407.876 823.87 404.995C821.038 402.065 817.474 400.601 813.177 400.601C808.88 400.601 805.291 402.041 802.41 404.922C799.578 407.803 798.162 411.367 798.162 415.615C798.162 419.863 799.603 423.428 802.483 426.309C805.364 429.189 808.929 430.63 813.177 430.63C817.474 430.63 821.038 429.189 823.87 426.309C826.751 423.428 828.191 419.863 828.191 415.615ZM1059.55 535H1045.78V488.418C1045.78 484.902 1045.61 481.509 1045.27 478.237C1044.97 474.966 1044.31 472.354 1043.29 470.4C1042.17 468.301 1040.55 466.714 1038.46 465.64C1036.36 464.565 1033.33 464.028 1029.37 464.028C1025.52 464.028 1021.66 465.005 1017.8 466.958C1013.94 468.862 1010.09 471.304 1006.23 474.282C1006.38 475.405 1006.5 476.724 1006.59 478.237C1006.69 479.702 1006.74 481.167 1006.74 482.632V535H992.972V488.418C992.972 484.805 992.801 481.387 992.459 478.164C992.166 474.893 991.507 472.28 990.481 470.327C989.358 468.228 987.747 466.665 985.647 465.64C983.548 464.565 980.521 464.028 976.565 464.028C972.806 464.028 969.021 464.956 965.213 466.812C961.453 468.667 957.693 471.035 953.934 473.916V535H940.164V453.188H953.934V462.271C958.23 458.706 962.503 455.923 966.751 453.921C971.048 451.919 975.613 450.918 980.447 450.918C986.014 450.918 990.726 452.09 994.583 454.434C998.489 456.777 1001.39 460.024 1003.3 464.175C1008.87 459.487 1013.94 456.118 1018.53 454.067C1023.12 451.968 1028.03 450.918 1033.25 450.918C1042.24 450.918 1048.86 453.652 1053.1 459.121C1057.4 464.541 1059.55 472.134 1059.55 481.899V535ZM1108.36 439.492H1092.83V425.21H1108.36V439.492ZM1107.48 535H1093.71V453.188H1107.48V535ZM1208.58 525.698C1208.58 539.565 1205.43 549.746 1199.13 556.24C1192.83 562.734 1183.14 565.981 1170.06 565.981C1165.71 565.981 1161.46 565.664 1157.31 565.029C1153.21 564.443 1149.16 563.589 1145.15 562.466V548.403H1145.89C1148.13 549.282 1151.7 550.356 1156.58 551.626C1161.46 552.944 1166.35 553.604 1171.23 553.604C1175.92 553.604 1179.8 553.042 1182.87 551.919C1185.95 550.796 1188.34 549.233 1190.05 547.231C1191.76 545.327 1192.98 543.032 1193.71 540.347C1194.45 537.661 1194.81 534.658 1194.81 531.338V523.867C1190.66 527.188 1186.68 529.678 1182.87 531.338C1179.11 532.949 1174.3 533.755 1168.45 533.755C1158.68 533.755 1150.92 530.239 1145.15 523.208C1139.44 516.128 1136.58 506.167 1136.58 493.325C1136.58 486.294 1137.56 480.239 1139.51 475.161C1141.52 470.034 1144.23 465.615 1147.64 461.904C1150.82 458.438 1154.68 455.752 1159.22 453.848C1163.76 451.895 1168.27 450.918 1172.77 450.918C1177.5 450.918 1181.46 451.406 1184.63 452.383C1187.85 453.311 1191.25 454.751 1194.81 456.704L1195.69 453.188H1208.58V525.698ZM1194.81 512.515V467.91C1191.15 466.25 1187.73 465.078 1184.56 464.395C1181.43 463.662 1178.31 463.296 1175.18 463.296C1167.62 463.296 1161.66 465.835 1157.31 470.913C1152.97 475.991 1150.79 483.364 1150.79 493.032C1150.79 502.212 1152.41 509.17 1155.63 513.906C1158.85 518.643 1164.2 521.011 1171.67 521.011C1175.67 521.011 1179.68 520.254 1183.68 518.74C1187.73 517.178 1191.44 515.103 1194.81 512.515Z" fill="black"/>
</svg>
